<svg width="820" height="307" viewBox="0 0 820 307" fill="none" xmlns="http://www.w3.org/2000/svg">
<g filter="url(#filter0_d_4_181)">
<mask id="path-1-outside-1_4_181" maskUnits="userSpaceOnUse" x="121" y="28" width="578" height="248" fill="black">
<rect fill="white" x="121" y="28" width="578" height="248"/>
<path d="M201.606 74.6309V79.0107C201.606 86.0355 200.654 92.3408 198.75 97.9268C196.846 103.513 194.159 108.273 190.688 112.209C187.218 116.102 183.071 119.086 178.247 121.159C173.465 123.233 168.154 124.27 162.314 124.27C156.517 124.27 151.206 123.233 146.382 121.159C141.6 119.086 137.453 116.102 133.94 112.209C130.428 108.273 127.699 103.513 125.752 97.9268C123.848 92.3408 122.896 86.0355 122.896 79.0107V74.6309C122.896 67.5638 123.848 61.2585 125.752 55.7148C127.656 50.1289 130.343 45.3682 133.813 41.4326C137.326 37.4971 141.473 34.4925 146.255 32.4189C151.079 30.3454 156.39 29.3086 162.188 29.3086C168.027 29.3086 173.338 30.3454 178.12 32.4189C182.944 34.4925 187.091 37.4971 190.562 41.4326C194.074 45.3682 196.782 50.1289 198.687 55.7148C200.633 61.2585 201.606 67.5638 201.606 74.6309ZM182.373 79.0107V74.5039C182.373 69.5951 181.929 65.2786 181.04 61.5547C180.151 57.8307 178.84 54.6992 177.104 52.1602C175.369 49.6211 173.254 47.7168 170.757 46.4473C168.26 45.1354 165.404 44.4795 162.188 44.4795C158.971 44.4795 156.115 45.1354 153.618 46.4473C151.164 47.7168 149.069 49.6211 147.334 52.1602C145.641 54.6992 144.351 57.8307 143.462 61.5547C142.573 65.2786 142.129 69.5951 142.129 74.5039V79.0107C142.129 83.8773 142.573 88.1937 143.462 91.96C144.351 95.6839 145.662 98.8366 147.397 101.418C149.132 103.957 151.248 105.882 153.745 107.194C156.242 108.506 159.098 109.162 162.314 109.162C165.531 109.162 168.387 108.506 170.884 107.194C173.381 105.882 175.475 103.957 177.168 101.418C178.861 98.8366 180.151 95.6839 181.04 91.96C181.929 88.1937 182.373 83.8773 182.373 79.0107ZM266.353 30.5781H285.332V91.6426C285.332 98.752 283.809 104.74 280.762 109.606C277.757 114.473 273.589 118.133 268.257 120.588C262.967 123.042 256.873 124.27 249.976 124.27C243.078 124.27 236.942 123.042 231.567 120.588C226.235 118.133 222.046 114.473 218.999 109.606C215.994 104.74 214.492 98.752 214.492 91.6426V30.5781H233.535V91.6426C233.535 95.7897 234.191 99.1751 235.503 101.799C236.815 104.423 238.698 106.348 241.152 107.575C243.649 108.802 246.59 109.416 249.976 109.416C253.446 109.416 256.387 108.802 258.799 107.575C261.253 106.348 263.115 104.423 264.385 101.799C265.697 99.1751 266.353 95.7897 266.353 91.6426V30.5781ZM342.334 30.5781V123H323.354V30.5781H342.334ZM370.771 30.5781V45.4951H295.361V30.5781H370.771ZM417.617 90.0557H394.067V75.2021H417.617C421.257 75.2021 424.219 74.6097 426.504 73.4248C428.789 72.1976 430.461 70.5049 431.519 68.3467C432.576 66.1885 433.105 63.7552 433.105 61.0469C433.105 58.2962 432.576 55.736 431.519 53.3662C430.461 50.9964 428.789 49.0921 426.504 47.6533C424.219 46.2145 421.257 45.4951 417.617 45.4951H400.669V123H381.626V30.5781H417.617C424.854 30.5781 431.053 31.89 436.216 34.5137C441.421 37.0951 445.399 40.6709 448.149 45.2412C450.9 49.8115 452.275 55.0378 452.275 60.9199C452.275 66.8867 450.9 72.0495 448.149 76.4082C445.399 80.7669 441.421 84.1312 436.216 86.501C431.053 88.8708 424.854 90.0557 417.617 90.0557ZM516.45 30.5781H535.43V91.6426C535.43 98.752 533.906 104.74 530.859 109.606C527.855 114.473 523.687 118.133 518.354 120.588C513.065 123.042 506.971 124.27 500.073 124.27C493.175 124.27 487.039 123.042 481.665 120.588C476.333 118.133 472.144 114.473 469.097 109.606C466.092 104.74 464.59 98.752 464.59 91.6426V30.5781H483.633V91.6426C483.633 95.7897 484.289 99.1751 485.601 101.799C486.912 104.423 488.796 106.348 491.25 107.575C493.747 108.802 496.688 109.416 500.073 109.416C503.543 109.416 506.484 108.802 508.896 107.575C511.351 106.348 513.213 104.423 514.482 101.799C515.794 99.1751 516.45 95.7897 516.45 91.6426V30.5781ZM592.432 30.5781V123H573.452V30.5781H592.432ZM620.869 30.5781V45.4951H545.459V30.5781H620.869ZM678.823 98.8154C678.823 97.165 678.569 95.6839 678.062 94.3721C677.596 93.0179 676.707 91.7907 675.396 90.6904C674.084 89.5479 672.243 88.4264 669.873 87.3262C667.503 86.2259 664.435 85.0833 660.669 83.8984C656.479 82.5443 652.502 81.0208 648.735 79.3281C645.011 77.6354 641.711 75.6676 638.833 73.4248C635.998 71.1396 633.755 68.4948 632.104 65.4902C630.496 62.4857 629.692 58.9945 629.692 55.0166C629.692 51.1657 630.539 47.6745 632.231 44.543C633.924 41.3691 636.294 38.6608 639.341 36.418C642.388 34.1328 645.985 32.3766 650.132 31.1494C654.321 29.9222 658.913 29.3086 663.906 29.3086C670.719 29.3086 676.665 30.5358 681.743 32.9902C686.821 35.4447 690.757 38.8089 693.55 43.083C696.385 47.3571 697.803 52.2448 697.803 57.7461H678.887C678.887 55.0378 678.315 52.668 677.173 50.6367C676.073 48.5632 674.38 46.9339 672.095 45.749C669.852 44.5641 667.017 43.9717 663.589 43.9717C660.288 43.9717 657.537 44.4795 655.337 45.4951C653.136 46.4684 651.486 47.8014 650.386 49.4941C649.285 51.1445 648.735 53.0065 648.735 55.0801C648.735 56.6458 649.116 58.0635 649.878 59.333C650.682 60.6025 651.867 61.7874 653.433 62.8877C654.998 63.988 656.924 65.0247 659.209 65.998C661.494 66.9714 664.139 67.9235 667.144 68.8545C672.179 70.3779 676.602 72.0918 680.41 73.9961C684.261 75.9004 687.477 78.0374 690.059 80.4072C692.64 82.777 694.587 85.4642 695.898 88.4688C697.21 91.4733 697.866 94.8799 697.866 98.6885C697.866 102.709 697.083 106.306 695.518 109.479C693.952 112.653 691.688 115.34 688.726 117.541C685.763 119.742 682.23 121.413 678.125 122.556C674.02 123.698 669.429 124.27 664.351 124.27C659.78 124.27 655.273 123.677 650.83 122.492C646.387 121.265 642.345 119.424 638.706 116.97C635.109 114.515 632.231 111.384 630.073 107.575C627.915 103.767 626.836 99.2598 626.836 94.0547H645.942C645.942 96.9323 646.387 99.3656 647.275 101.354C648.164 103.343 649.412 104.951 651.021 106.179C652.671 107.406 654.618 108.295 656.86 108.845C659.146 109.395 661.642 109.67 664.351 109.67C667.651 109.67 670.36 109.204 672.476 108.273C674.634 107.342 676.221 106.052 677.236 104.401C678.294 102.751 678.823 100.889 678.823 98.8154ZM260.703 275H240.581L240.708 260.146H260.703C265.697 260.146 269.907 259.025 273.335 256.782C276.763 254.497 279.344 251.175 281.079 246.816C282.856 242.458 283.745 237.189 283.745 231.011V226.504C283.745 221.764 283.237 217.596 282.222 213.999C281.248 210.402 279.788 207.376 277.842 204.922C275.895 202.467 273.504 200.627 270.669 199.399C267.834 198.13 264.575 197.495 260.894 197.495H240.2V182.578H260.894C267.072 182.578 272.721 183.636 277.842 185.752C283.005 187.826 287.469 190.809 291.235 194.702C295.002 198.595 297.9 203.25 299.932 208.667C302.005 214.041 303.042 220.029 303.042 226.631V231.011C303.042 237.57 302.005 243.558 299.932 248.975C297.9 254.391 295.002 259.046 291.235 262.939C287.511 266.79 283.047 269.774 277.842 271.89C272.679 273.963 266.966 275 260.703 275ZM251.372 182.578V275H232.329V182.578H251.372ZM337.129 182.578V275H318.149V182.578H337.129ZM393.687 198.384L368.55 275H348.301L382.642 182.578H395.527L393.687 198.384ZM414.57 275L389.37 198.384L387.339 182.578H400.352L434.883 275H414.57ZM413.428 240.596V255.513H364.614V240.596H413.428ZM443.452 182.578H477.92C484.987 182.578 491.06 183.636 496.138 185.752C501.258 187.868 505.194 190.999 507.944 195.146C510.695 199.294 512.07 204.393 512.07 210.444C512.07 215.396 511.224 219.648 509.531 223.203C507.881 226.715 505.532 229.657 502.485 232.026C499.481 234.354 495.947 236.216 491.885 237.612L485.854 240.786H455.894L455.767 225.933H478.047C481.39 225.933 484.162 225.34 486.362 224.155C488.563 222.97 490.213 221.32 491.313 219.204C492.456 217.088 493.027 214.634 493.027 211.841C493.027 208.879 492.477 206.318 491.377 204.16C490.277 202.002 488.605 200.352 486.362 199.209C484.119 198.066 481.305 197.495 477.92 197.495H462.495V275H443.452V182.578ZM495.122 275L474.048 233.804L494.17 233.677L515.498 274.111V275H495.122ZM536.382 182.578L555.679 224.727L574.976 182.578H595.732L565.327 241.357V275H546.03V241.357L515.562 182.578H536.382Z"/>
</mask>
<path d="M201.606 74.6309V79.0107C201.606 86.0355 200.654 92.3408 198.75 97.9268C196.846 103.513 194.159 108.273 190.688 112.209C187.218 116.102 183.071 119.086 178.247 121.159C173.465 123.233 168.154 124.27 162.314 124.27C156.517 124.27 151.206 123.233 146.382 121.159C141.6 119.086 137.453 116.102 133.94 112.209C130.428 108.273 127.699 103.513 125.752 97.9268C123.848 92.3408 122.896 86.0355 122.896 79.0107V74.6309C122.896 67.5638 123.848 61.2585 125.752 55.7148C127.656 50.1289 130.343 45.3682 133.813 41.4326C137.326 37.4971 141.473 34.4925 146.255 32.4189C151.079 30.3454 156.39 29.3086 162.188 29.3086C168.027 29.3086 173.338 30.3454 178.12 32.4189C182.944 34.4925 187.091 37.4971 190.562 41.4326C194.074 45.3682 196.782 50.1289 198.687 55.7148C200.633 61.2585 201.606 67.5638 201.606 74.6309ZM182.373 79.0107V74.5039C182.373 69.5951 181.929 65.2786 181.04 61.5547C180.151 57.8307 178.84 54.6992 177.104 52.1602C175.369 49.6211 173.254 47.7168 170.757 46.4473C168.26 45.1354 165.404 44.4795 162.188 44.4795C158.971 44.4795 156.115 45.1354 153.618 46.4473C151.164 47.7168 149.069 49.6211 147.334 52.1602C145.641 54.6992 144.351 57.8307 143.462 61.5547C142.573 65.2786 142.129 69.5951 142.129 74.5039V79.0107C142.129 83.8773 142.573 88.1937 143.462 91.96C144.351 95.6839 145.662 98.8366 147.397 101.418C149.132 103.957 151.248 105.882 153.745 107.194C156.242 108.506 159.098 109.162 162.314 109.162C165.531 109.162 168.387 108.506 170.884 107.194C173.381 105.882 175.475 103.957 177.168 101.418C178.861 98.8366 180.151 95.6839 181.04 91.96C181.929 88.1937 182.373 83.8773 182.373 79.0107ZM266.353 30.5781H285.332V91.6426C285.332 98.752 283.809 104.74 280.762 109.606C277.757 114.473 273.589 118.133 268.257 120.588C262.967 123.042 256.873 124.27 249.976 124.27C243.078 124.27 236.942 123.042 231.567 120.588C226.235 118.133 222.046 114.473 218.999 109.606C215.994 104.74 214.492 98.752 214.492 91.6426V30.5781H233.535V91.6426C233.535 95.7897 234.191 99.1751 235.503 101.799C236.815 104.423 238.698 106.348 241.152 107.575C243.649 108.802 246.59 109.416 249.976 109.416C253.446 109.416 256.387 108.802 258.799 107.575C261.253 106.348 263.115 104.423 264.385 101.799C265.697 99.1751 266.353 95.7897 266.353 91.6426V30.5781ZM342.334 30.5781V123H323.354V30.5781H342.334ZM370.771 30.5781V45.4951H295.361V30.5781H370.771ZM417.617 90.0557H394.067V75.2021H417.617C421.257 75.2021 424.219 74.6097 426.504 73.4248C428.789 72.1976 430.461 70.5049 431.519 68.3467C432.576 66.1885 433.105 63.7552 433.105 61.0469C433.105 58.2962 432.576 55.736 431.519 53.3662C430.461 50.9964 428.789 49.0921 426.504 47.6533C424.219 46.2145 421.257 45.4951 417.617 45.4951H400.669V123H381.626V30.5781H417.617C424.854 30.5781 431.053 31.89 436.216 34.5137C441.421 37.0951 445.399 40.6709 448.149 45.2412C450.9 49.8115 452.275 55.0378 452.275 60.9199C452.275 66.8867 450.9 72.0495 448.149 76.4082C445.399 80.7669 441.421 84.1312 436.216 86.501C431.053 88.8708 424.854 90.0557 417.617 90.0557ZM516.45 30.5781H535.43V91.6426C535.43 98.752 533.906 104.74 530.859 109.606C527.855 114.473 523.687 118.133 518.354 120.588C513.065 123.042 506.971 124.27 500.073 124.27C493.175 124.27 487.039 123.042 481.665 120.588C476.333 118.133 472.144 114.473 469.097 109.606C466.092 104.74 464.59 98.752 464.59 91.6426V30.5781H483.633V91.6426C483.633 95.7897 484.289 99.1751 485.601 101.799C486.912 104.423 488.796 106.348 491.25 107.575C493.747 108.802 496.688 109.416 500.073 109.416C503.543 109.416 506.484 108.802 508.896 107.575C511.351 106.348 513.213 104.423 514.482 101.799C515.794 99.1751 516.45 95.7897 516.45 91.6426V30.5781ZM592.432 30.5781V123H573.452V30.5781H592.432ZM620.869 30.5781V45.4951H545.459V30.5781H620.869ZM678.823 98.8154C678.823 97.165 678.569 95.6839 678.062 94.3721C677.596 93.0179 676.707 91.7907 675.396 90.6904C674.084 89.5479 672.243 88.4264 669.873 87.3262C667.503 86.2259 664.435 85.0833 660.669 83.8984C656.479 82.5443 652.502 81.0208 648.735 79.3281C645.011 77.6354 641.711 75.6676 638.833 73.4248C635.998 71.1396 633.755 68.4948 632.104 65.4902C630.496 62.4857 629.692 58.9945 629.692 55.0166C629.692 51.1657 630.539 47.6745 632.231 44.543C633.924 41.3691 636.294 38.6608 639.341 36.418C642.388 34.1328 645.985 32.3766 650.132 31.1494C654.321 29.9222 658.913 29.3086 663.906 29.3086C670.719 29.3086 676.665 30.5358 681.743 32.9902C686.821 35.4447 690.757 38.8089 693.55 43.083C696.385 47.3571 697.803 52.2448 697.803 57.7461H678.887C678.887 55.0378 678.315 52.668 677.173 50.6367C676.073 48.5632 674.38 46.9339 672.095 45.749C669.852 44.5641 667.017 43.9717 663.589 43.9717C660.288 43.9717 657.537 44.4795 655.337 45.4951C653.136 46.4684 651.486 47.8014 650.386 49.4941C649.285 51.1445 648.735 53.0065 648.735 55.0801C648.735 56.6458 649.116 58.0635 649.878 59.333C650.682 60.6025 651.867 61.7874 653.433 62.8877C654.998 63.988 656.924 65.0247 659.209 65.998C661.494 66.9714 664.139 67.9235 667.144 68.8545C672.179 70.3779 676.602 72.0918 680.41 73.9961C684.261 75.9004 687.477 78.0374 690.059 80.4072C692.64 82.777 694.587 85.4642 695.898 88.4688C697.21 91.4733 697.866 94.8799 697.866 98.6885C697.866 102.709 697.083 106.306 695.518 109.479C693.952 112.653 691.688 115.34 688.726 117.541C685.763 119.742 682.23 121.413 678.125 122.556C674.02 123.698 669.429 124.27 664.351 124.27C659.78 124.27 655.273 123.677 650.83 122.492C646.387 121.265 642.345 119.424 638.706 116.97C635.109 114.515 632.231 111.384 630.073 107.575C627.915 103.767 626.836 99.2598 626.836 94.0547H645.942C645.942 96.9323 646.387 99.3656 647.275 101.354C648.164 103.343 649.412 104.951 651.021 106.179C652.671 107.406 654.618 108.295 656.86 108.845C659.146 109.395 661.642 109.67 664.351 109.67C667.651 109.67 670.36 109.204 672.476 108.273C674.634 107.342 676.221 106.052 677.236 104.401C678.294 102.751 678.823 100.889 678.823 98.8154ZM260.703 275H240.581L240.708 260.146H260.703C265.697 260.146 269.907 259.025 273.335 256.782C276.763 254.497 279.344 251.175 281.079 246.816C282.856 242.458 283.745 237.189 283.745 231.011V226.504C283.745 221.764 283.237 217.596 282.222 213.999C281.248 210.402 279.788 207.376 277.842 204.922C275.895 202.467 273.504 200.627 270.669 199.399C267.834 198.13 264.575 197.495 260.894 197.495H240.2V182.578H260.894C267.072 182.578 272.721 183.636 277.842 185.752C283.005 187.826 287.469 190.809 291.235 194.702C295.002 198.595 297.9 203.25 299.932 208.667C302.005 214.041 303.042 220.029 303.042 226.631V231.011C303.042 237.57 302.005 243.558 299.932 248.975C297.9 254.391 295.002 259.046 291.235 262.939C287.511 266.79 283.047 269.774 277.842 271.89C272.679 273.963 266.966 275 260.703 275ZM251.372 182.578V275H232.329V182.578H251.372ZM337.129 182.578V275H318.149V182.578H337.129ZM393.687 198.384L368.55 275H348.301L382.642 182.578H395.527L393.687 198.384ZM414.57 275L389.37 198.384L387.339 182.578H400.352L434.883 275H414.57ZM413.428 240.596V255.513H364.614V240.596H413.428ZM443.452 182.578H477.92C484.987 182.578 491.06 183.636 496.138 185.752C501.258 187.868 505.194 190.999 507.944 195.146C510.695 199.294 512.07 204.393 512.07 210.444C512.07 215.396 511.224 219.648 509.531 223.203C507.881 226.715 505.532 229.657 502.485 232.026C499.481 234.354 495.947 236.216 491.885 237.612L485.854 240.786H455.894L455.767 225.933H478.047C481.39 225.933 484.162 225.34 486.362 224.155C488.563 222.97 490.213 221.32 491.313 219.204C492.456 217.088 493.027 214.634 493.027 211.841C493.027 208.879 492.477 206.318 491.377 204.16C490.277 202.002 488.605 200.352 486.362 199.209C484.119 198.066 481.305 197.495 477.92 197.495H462.495V275H443.452V182.578ZM495.122 275L474.048 233.804L494.17 233.677L515.498 274.111V275H495.122ZM536.382 182.578L555.679 224.727L574.976 182.578H595.732L565.327 241.357V275H546.03V241.357L515.562 182.578H536.382Z" fill="white"/>
<path d="M190.688 112.209L191.435 112.874L191.439 112.87L190.688 112.209ZM178.247 121.159L177.852 120.24L177.849 120.242L178.247 121.159ZM146.382 121.159L145.984 122.077L145.987 122.078L146.382 121.159ZM133.94 112.209L133.194 112.875L133.198 112.879L133.94 112.209ZM125.752 97.9268L124.805 98.2494L124.808 98.2558L125.752 97.9268ZM125.752 55.7148L126.698 56.0397L126.698 56.0375L125.752 55.7148ZM133.813 41.4326L133.067 40.7667L133.063 40.7713L133.813 41.4326ZM146.255 32.4189L145.86 31.5002L145.857 31.5015L146.255 32.4189ZM178.12 32.4189L177.722 33.3364L177.725 33.3377L178.12 32.4189ZM190.562 41.4326L189.811 42.094L189.815 42.0985L190.562 41.4326ZM198.687 55.7148L197.74 56.0375L197.743 56.0462L198.687 55.7148ZM181.04 61.5547L180.067 61.7868L181.04 61.5547ZM170.757 46.4473L170.292 47.3326L170.304 47.3387L170.757 46.4473ZM153.618 46.4473L154.078 47.3355L154.083 47.3325L153.618 46.4473ZM147.334 52.1602L146.508 51.5959L146.502 51.6055L147.334 52.1602ZM143.462 61.5547L144.435 61.7868L143.462 61.5547ZM143.462 91.96L142.489 92.1896L142.489 92.1921L143.462 91.96ZM147.397 101.418L146.567 101.976L146.572 101.982L147.397 101.418ZM153.745 107.194L153.28 108.08L153.745 107.194ZM170.884 107.194L171.349 108.08L170.884 107.194ZM177.168 101.418L178 101.973L178.004 101.966L177.168 101.418ZM181.04 91.96L182.013 92.1921L182.013 92.1896L181.04 91.96ZM200.606 74.6309V79.0107H202.606V74.6309H200.606ZM200.606 79.0107C200.606 85.946 199.666 92.1397 197.803 97.6041L199.697 98.2494C201.642 92.542 202.606 86.1249 202.606 79.0107H200.606ZM197.803 97.6041C195.936 103.081 193.311 107.723 189.938 111.548L191.439 112.87C195.006 108.824 197.755 103.945 199.697 98.2494L197.803 97.6041ZM189.942 111.544C186.57 115.327 182.543 118.224 177.852 120.24L178.642 122.078C183.6 119.947 187.867 116.877 191.435 112.874L189.942 111.544ZM177.849 120.242C173.207 122.255 168.034 123.27 162.314 123.27V125.27C168.275 125.27 173.723 124.211 178.645 122.077L177.849 120.242ZM162.314 123.27C156.639 123.27 151.464 122.255 146.777 120.24L145.987 122.078C150.948 124.21 156.395 125.27 162.314 125.27V123.27ZM146.78 120.242C142.13 118.225 138.1 115.327 134.683 111.539L133.198 112.879C136.806 116.878 141.07 119.946 145.984 122.077L146.78 120.242ZM134.687 111.543C131.272 107.717 128.605 103.074 126.696 97.5977L124.808 98.2558C126.792 103.951 129.584 108.83 133.194 112.875L134.687 111.543ZM126.698 97.6041C124.836 92.1397 123.896 85.946 123.896 79.0107H121.896C121.896 86.1249 122.86 92.542 124.805 98.2494L126.698 97.6041ZM123.896 79.0107V74.6309H121.896V79.0107H123.896ZM123.896 74.6309C123.896 67.6523 124.836 61.4598 126.698 56.0397L124.806 55.39C122.859 61.0571 121.896 67.4753 121.896 74.6309H123.896ZM126.698 56.0375C128.566 50.5608 131.191 45.9191 134.564 42.094L133.063 40.7713C129.496 44.8173 126.747 49.697 124.805 55.3922L126.698 56.0375ZM134.56 42.0985C137.977 38.2697 142.005 35.3516 146.653 33.3364L145.857 31.5015C140.941 33.6334 136.675 36.7245 133.067 40.7668L134.56 42.0985ZM146.65 33.3377C151.337 31.3231 156.512 30.3086 162.188 30.3086V28.3086C156.268 28.3086 150.821 29.3677 145.86 31.5002L146.65 33.3377ZM162.188 30.3086C167.907 30.3086 173.08 31.3235 177.722 33.3364L178.518 31.5015C173.596 29.3673 168.148 28.3086 162.188 28.3086V30.3086ZM177.725 33.3377C182.414 35.3528 186.439 38.2695 189.811 42.094L191.312 40.7713C187.744 36.7246 183.475 33.6322 178.515 31.5002L177.725 33.3377ZM189.815 42.0985C193.229 45.923 195.874 50.5632 197.74 56.0375L199.633 55.3922C197.691 49.6946 194.919 44.8134 191.308 40.7668L189.815 42.0985ZM197.743 56.0462C199.646 61.4642 200.606 67.6544 200.606 74.6309H202.606C202.606 67.4732 201.621 61.0527 199.63 55.3835L197.743 56.0462ZM183.373 79.0107V74.5039H181.373V79.0107H183.373ZM183.373 74.5039C183.373 69.5376 182.924 65.1404 182.013 61.3226L180.067 61.7868C180.934 65.4169 181.373 69.6525 181.373 74.5039H183.373ZM182.013 61.3226C181.102 57.5079 179.749 54.2571 177.93 51.596L176.279 52.7243C177.93 55.1413 179.2 58.1536 180.067 61.7868L182.013 61.3226ZM177.93 51.596C176.11 48.9322 173.871 46.9088 171.21 45.5559L170.304 47.3387C172.636 48.5248 174.629 50.31 176.279 52.7243L177.93 51.596ZM171.222 45.562C168.563 44.1648 165.543 43.4795 162.188 43.4795V45.4795C165.265 45.4795 167.957 46.106 170.292 47.3325L171.222 45.562ZM162.188 43.4795C158.832 43.4795 155.812 44.1648 153.153 45.562L154.083 47.3325C156.418 46.106 159.11 45.4795 162.188 45.4795V43.4795ZM153.159 45.559C150.541 46.9129 148.326 48.936 146.508 51.596L148.16 52.7243C149.812 50.3062 151.786 48.5207 154.078 47.3355L153.159 45.559ZM146.502 51.6055C144.729 54.2643 143.399 57.5117 142.489 61.3226L144.435 61.7868C145.303 58.1498 146.553 55.1341 148.166 52.7149L146.502 51.6055ZM142.489 61.3226C141.578 65.1404 141.129 69.5376 141.129 74.5039H143.129C143.129 69.6525 143.568 65.4169 144.435 61.7868L142.489 61.3226ZM141.129 74.5039V79.0107H143.129V74.5039H141.129ZM141.129 79.0107C141.129 83.9358 141.578 88.3317 142.489 92.1896L144.435 91.7303C143.568 88.0557 143.129 83.8188 143.129 79.0107H141.129ZM142.489 92.1921C143.399 96.0063 144.752 99.2753 146.568 101.976L148.227 100.86C146.572 98.3979 145.302 95.3615 144.435 91.7278L142.489 92.1921ZM146.572 101.982C148.39 104.644 150.626 106.685 153.28 108.08L154.21 106.309C151.871 105.08 149.874 103.27 148.223 100.854L146.572 101.982ZM153.28 108.08C155.939 109.477 158.959 110.162 162.314 110.162V108.162C159.237 108.162 156.545 107.536 154.21 106.309L153.28 108.08ZM162.314 110.162C165.67 110.162 168.69 109.477 171.349 108.08L170.419 106.309C168.084 107.536 165.391 108.162 162.314 108.162V110.162ZM171.349 108.08C174.006 106.684 176.222 104.639 178 101.973L176.336 100.863C174.728 103.275 172.755 105.081 170.419 106.309L171.349 108.08ZM178.004 101.966C179.774 99.2681 181.103 96.0025 182.013 92.1921L180.067 91.7278C179.199 95.3653 177.948 98.405 176.332 100.87L178.004 101.966ZM182.013 92.1896C182.924 88.3317 183.373 83.9358 183.373 79.0107H181.373C181.373 83.8188 180.934 88.0557 180.067 91.7303L182.013 92.1896ZM266.353 30.5781V29.5781H265.353V30.5781H266.353ZM285.332 30.5781H286.332V29.5781H285.332V30.5781ZM280.762 109.606L279.914 109.076L279.911 109.081L280.762 109.606ZM268.257 120.588L267.839 119.68L267.836 119.681L268.257 120.588ZM231.567 120.588L231.149 121.496L231.152 121.498L231.567 120.588ZM218.999 109.606L218.148 110.132L218.151 110.137L218.999 109.606ZM214.492 30.5781V29.5781H213.492V30.5781H214.492ZM233.535 30.5781H234.535V29.5781H233.535V30.5781ZM241.152 107.575L240.705 108.47L240.711 108.473L241.152 107.575ZM258.799 107.575L258.352 106.681L258.345 106.684L258.799 107.575ZM264.385 101.799L263.49 101.352L263.485 101.363L264.385 101.799ZM266.353 31.5781H285.332V29.5781H266.353V31.5781ZM284.332 30.5781V91.6426H286.332V30.5781H284.332ZM284.332 91.6426C284.332 98.6089 282.84 104.402 279.914 109.076L281.609 110.137C284.777 105.077 286.332 98.895 286.332 91.6426H284.332ZM279.911 109.081C277.013 113.776 272.997 117.305 267.839 119.68L268.675 121.496C274.181 118.962 278.502 115.17 281.613 110.132L279.911 109.081ZM267.836 119.681C262.7 122.064 256.754 123.27 249.976 123.27V125.27C256.992 125.27 263.234 124.021 268.678 121.495L267.836 119.681ZM249.976 123.27C243.197 123.27 237.207 122.064 231.983 119.678L231.152 121.498C236.677 124.021 242.958 125.27 249.976 125.27V123.27ZM231.986 119.68C226.826 117.305 222.788 113.773 219.847 109.076L218.151 110.137C221.304 115.173 225.645 118.962 231.149 121.496L231.986 119.68ZM219.85 109.081C216.964 104.407 215.492 98.6113 215.492 91.6426H213.492C213.492 98.8926 215.025 105.073 218.148 110.132L219.85 109.081ZM215.492 91.6426V30.5781H213.492V91.6426H215.492ZM214.492 31.5781H233.535V29.5781H214.492V31.5781ZM232.535 30.5781V91.6426H234.535V30.5781H232.535ZM232.535 91.6426C232.535 95.8848 233.205 99.4382 234.609 102.246L236.397 101.352C235.178 98.9121 234.535 95.6946 234.535 91.6426H232.535ZM234.609 102.246C236.01 105.049 238.043 107.139 240.705 108.47L241.6 106.681C239.352 105.557 237.62 103.796 236.397 101.352L234.609 102.246ZM240.711 108.473C243.372 109.78 246.47 110.416 249.976 110.416V108.416C246.71 108.416 243.926 107.824 241.593 106.678L240.711 108.473ZM249.976 110.416C253.56 110.416 256.666 109.782 259.252 108.466L258.345 106.684C256.108 107.822 253.331 108.416 249.976 108.416V110.416ZM259.246 108.47C261.911 107.137 263.926 105.044 265.285 102.234L263.485 101.363C262.305 103.801 260.596 105.559 258.352 106.681L259.246 108.47ZM265.279 102.246C266.683 99.4382 267.353 95.8848 267.353 91.6426H265.353C265.353 95.6946 264.71 98.9121 263.49 101.352L265.279 102.246ZM267.353 91.6426V30.5781H265.353V91.6426H267.353ZM342.334 30.5781H343.334V29.5781H342.334V30.5781ZM342.334 123V124H343.334V123H342.334ZM323.354 123H322.354V124H323.354V123ZM323.354 30.5781V29.5781H322.354V30.5781H323.354ZM370.771 30.5781H371.771V29.5781H370.771V30.5781ZM370.771 45.4951V46.4951H371.771V45.4951H370.771ZM295.361 45.4951H294.361V46.4951H295.361V45.4951ZM295.361 30.5781V29.5781H294.361V30.5781H295.361ZM341.334 30.5781V123H343.334V30.5781H341.334ZM342.334 122H323.354V124H342.334V122ZM324.354 123V30.5781H322.354V123H324.354ZM323.354 31.5781H342.334V29.5781H323.354V31.5781ZM369.771 30.5781V45.4951H371.771V30.5781H369.771ZM370.771 44.4951H295.361V46.4951H370.771V44.4951ZM296.361 45.4951V30.5781H294.361V45.4951H296.361ZM295.361 31.5781H370.771V29.5781H295.361V31.5781ZM394.067 90.0557H393.067V91.0557H394.067V90.0557ZM394.067 75.2021V74.2021H393.067V75.2021H394.067ZM426.504 73.4248L426.964 74.3126L426.971 74.3092L426.977 74.3058L426.504 73.4248ZM400.669 45.4951V44.4951H399.669V45.4951H400.669ZM400.669 123V124H401.669V123H400.669ZM381.626 123H380.626V124H381.626V123ZM381.626 30.5781V29.5781H380.626V30.5781H381.626ZM436.216 34.5137L435.763 35.4052L435.772 35.4096L436.216 34.5137ZM436.216 86.501L435.801 85.5909L435.799 85.5921L436.216 86.501ZM417.617 89.0557H394.067V91.0557H417.617V89.0557ZM395.067 90.0557V75.2021H393.067V90.0557H395.067ZM394.067 76.2021H417.617V74.2021H394.067V76.2021ZM417.617 76.2021C421.354 76.2021 424.49 75.5953 426.964 74.3126L426.044 72.5371C423.947 73.6241 421.159 74.2021 417.617 74.2021V76.2021ZM426.977 74.3058C429.431 72.9879 431.259 71.1479 432.416 68.7868L430.621 67.9065C429.662 69.8619 428.147 71.4073 426.031 72.5438L426.977 74.3058ZM432.416 68.7868C433.55 66.4751 434.105 63.8883 434.105 61.0469H432.105C432.105 63.6221 431.603 65.9018 430.621 67.9065L432.416 68.7868ZM434.105 61.0469C434.105 58.1643 433.55 55.4642 432.432 52.9586L430.605 53.7739C431.603 56.0078 432.105 58.4281 432.105 61.0469H434.105ZM432.432 52.9586C431.29 50.4006 429.482 48.3467 427.037 46.8071L425.971 48.4996C428.096 49.8375 429.631 51.5922 430.605 53.7739L432.432 52.9586ZM427.037 46.8071C424.546 45.2386 421.381 44.4951 417.617 44.4951V46.4951C421.132 46.4951 423.892 47.1905 425.971 48.4996L427.037 46.8071ZM417.617 44.4951H400.669V46.4951H417.617V44.4951ZM399.669 45.4951V123H401.669V45.4951H399.669ZM400.669 122H381.626V124H400.669V122ZM382.626 123V30.5781H380.626V123H382.626ZM381.626 31.5781H417.617V29.5781H381.626V31.5781ZM417.617 31.5781C424.734 31.5781 430.771 32.8684 435.763 35.4052L436.669 33.6222C431.335 30.9116 424.973 29.5781 417.617 29.5781V31.5781ZM435.772 35.4096C440.821 37.914 444.649 41.3646 447.293 45.7569L449.006 44.7255C446.148 39.9772 442.02 36.2761 436.66 33.6178L435.772 35.4096ZM447.293 45.7569C449.94 50.1558 451.275 55.2002 451.275 60.9199H453.275C453.275 54.8753 451.86 49.4672 449.006 44.7255L447.293 45.7569ZM451.275 60.9199C451.275 66.7282 449.938 71.6994 447.304 75.8745L448.995 76.9419C451.862 72.3995 453.275 67.0452 453.275 60.9199H451.275ZM447.304 75.8745C444.668 80.0506 440.849 83.2926 435.801 85.5909L436.63 87.4111C441.992 84.9697 446.129 81.4832 448.995 76.9419L447.304 75.8745ZM435.799 85.5921C430.797 87.8878 424.748 89.0557 417.617 89.0557V91.0557C424.959 91.0557 431.309 89.8537 436.633 87.4098L435.799 85.5921ZM516.45 30.5781V29.5781H515.45V30.5781H516.45ZM535.43 30.5781H536.43V29.5781H535.43V30.5781ZM530.859 109.606L530.012 109.076L530.008 109.081L530.859 109.606ZM518.354 120.588L517.936 119.68L517.934 119.681L518.354 120.588ZM481.665 120.588L481.247 121.496L481.25 121.498L481.665 120.588ZM469.097 109.606L468.246 110.132L468.249 110.137L469.097 109.606ZM464.59 30.5781V29.5781H463.59V30.5781H464.59ZM483.633 30.5781H484.633V29.5781H483.633V30.5781ZM491.25 107.575L490.803 108.47L490.809 108.473L491.25 107.575ZM508.896 107.575L508.449 106.681L508.443 106.684L508.896 107.575ZM514.482 101.799L513.588 101.352L513.582 101.363L514.482 101.799ZM516.45 31.5781H535.43V29.5781H516.45V31.5781ZM534.43 30.5781V91.6426H536.43V30.5781H534.43ZM534.43 91.6426C534.43 98.6089 532.938 104.402 530.012 109.076L531.707 110.137C534.875 105.077 536.43 98.895 536.43 91.6426H534.43ZM530.008 109.081C527.11 113.776 523.095 117.305 517.936 119.68L518.773 121.496C524.278 118.962 528.599 115.17 531.71 110.132L530.008 109.081ZM517.934 119.681C512.798 122.064 506.852 123.27 500.073 123.27V125.27C507.09 125.27 513.332 124.021 518.775 121.495L517.934 119.681ZM500.073 123.27C493.295 123.27 487.304 122.064 482.08 119.678L481.25 121.498C486.774 124.021 493.056 125.27 500.073 125.27V123.27ZM482.083 119.68C476.924 117.305 472.885 113.773 469.944 109.076L468.249 110.137C471.402 115.173 475.742 118.962 481.247 121.496L482.083 119.68ZM469.948 109.081C467.062 104.407 465.59 98.6113 465.59 91.6426H463.59C463.59 98.8926 465.123 105.073 468.246 110.132L469.948 109.081ZM465.59 91.6426V30.5781H463.59V91.6426H465.59ZM464.59 31.5781H483.633V29.5781H464.59V31.5781ZM482.633 30.5781V91.6426H484.633V30.5781H482.633ZM482.633 91.6426C482.633 95.8848 483.302 99.4382 484.706 102.246L486.495 101.352C485.275 98.9121 484.633 95.6946 484.633 91.6426H482.633ZM484.706 102.246C486.108 105.049 488.141 107.139 490.803 108.47L491.697 106.681C489.45 105.557 487.717 103.796 486.495 101.352L484.706 102.246ZM490.809 108.473C493.469 109.78 496.568 110.416 500.073 110.416V108.416C496.808 108.416 494.024 107.824 491.691 106.678L490.809 108.473ZM500.073 110.416C503.658 110.416 506.763 109.782 509.35 108.466L508.443 106.684C506.205 107.822 503.429 108.416 500.073 108.416V110.416ZM509.344 108.47C512.008 107.137 514.023 105.044 515.383 102.234L513.582 101.363C512.403 103.801 510.693 105.559 508.449 106.681L509.344 108.47ZM515.377 102.246C516.781 99.4382 517.45 95.8848 517.45 91.6426H515.45C515.45 95.6946 514.808 98.9121 513.588 101.352L515.377 102.246ZM517.45 91.6426V30.5781H515.45V91.6426H517.45ZM592.432 30.5781H593.432V29.5781H592.432V30.5781ZM592.432 123V124H593.432V123H592.432ZM573.452 123H572.452V124H573.452V123ZM573.452 30.5781V29.5781H572.452V30.5781H573.452ZM620.869 30.5781H621.869V29.5781H620.869V30.5781ZM620.869 45.4951V46.4951H621.869V45.4951H620.869ZM545.459 45.4951H544.459V46.4951H545.459V45.4951ZM545.459 30.5781V29.5781H544.459V30.5781H545.459ZM591.432 30.5781V123H593.432V30.5781H591.432ZM592.432 122H573.452V124H592.432V122ZM574.452 123V30.5781H572.452V123H574.452ZM573.452 31.5781H592.432V29.5781H573.452V31.5781ZM619.869 30.5781V45.4951H621.869V30.5781H619.869ZM620.869 44.4951H545.459V46.4951H620.869V44.4951ZM546.459 45.4951V30.5781H544.459V45.4951H546.459ZM545.459 31.5781H620.869V29.5781H545.459V31.5781ZM678.062 94.3721L677.116 94.6972L677.122 94.7152L677.129 94.7331L678.062 94.3721ZM675.396 90.6904L674.739 91.4445L674.746 91.4506L674.753 91.4566L675.396 90.6904ZM660.669 83.8984L660.361 84.85L660.369 84.8523L660.669 83.8984ZM648.735 79.3281L648.322 80.2385L648.325 80.2402L648.735 79.3281ZM638.833 73.4248L638.205 74.2034L638.212 74.2085L638.218 74.2135L638.833 73.4248ZM632.104 65.4902L631.223 65.9621L631.228 65.9717L632.104 65.4902ZM632.231 44.543L633.111 45.0185L633.114 45.0136L632.231 44.543ZM639.341 36.418L639.934 37.2233L639.941 37.218L639.341 36.418ZM650.132 31.1494L649.851 30.1897L649.848 30.1905L650.132 31.1494ZM693.55 43.083L692.713 43.63L692.716 43.6358L693.55 43.083ZM697.803 57.7461V58.7461H698.803V57.7461H697.803ZM678.887 57.7461H677.887V58.7461H678.887V57.7461ZM677.173 50.6367L676.29 51.1054L676.295 51.1163L676.301 51.127L677.173 50.6367ZM672.095 45.749L671.628 46.6332L671.634 46.6368L672.095 45.749ZM655.337 45.4951L655.741 46.4097L655.749 46.4064L655.756 46.4031L655.337 45.4951ZM650.386 49.4941L651.218 50.0489L651.224 50.0391L650.386 49.4941ZM649.878 59.333L649.02 59.8475L649.027 59.8579L649.033 59.8681L649.878 59.333ZM653.433 62.8877L654.008 62.0695L653.433 62.8877ZM667.144 68.8545L666.848 69.8097L666.854 69.8117L667.144 68.8545ZM680.41 73.9961L679.963 74.8905L679.967 74.8925L680.41 73.9961ZM695.898 88.4688L694.982 88.8689L695.898 88.4688ZM688.726 117.541L688.129 116.738L688.129 116.738L688.726 117.541ZM650.83 122.492L650.564 123.456L650.572 123.458L650.83 122.492ZM638.706 116.97L638.142 117.796L638.147 117.799L638.706 116.97ZM626.836 94.0547V93.0547H625.836V94.0547H626.836ZM645.942 94.0547H646.942V93.0547H645.942V94.0547ZM651.021 106.179L650.414 106.974L650.424 106.981L651.021 106.179ZM656.86 108.845L656.622 109.816L656.626 109.817L656.86 108.845ZM672.476 108.273L672.079 107.355L672.073 107.358L672.476 108.273ZM677.236 104.401L676.394 103.862L676.389 103.869L676.385 103.877L677.236 104.401ZM679.823 98.8154C679.823 97.0626 679.553 95.4561 678.994 94.0111L677.129 94.7331C677.585 95.9117 677.823 97.2675 677.823 98.8154H679.823ZM679.007 94.047C678.472 92.49 677.462 91.1183 676.038 89.9242L674.753 91.4566C675.953 92.4631 676.72 93.5458 677.116 94.6972L679.007 94.047ZM676.052 89.9363C674.643 88.7093 672.711 87.5413 670.294 86.4192L669.452 88.2332C671.775 89.3116 673.524 90.3864 674.739 91.4445L676.052 89.9363ZM670.294 86.4192C667.871 85.294 664.758 84.1366 660.969 82.9445L660.369 84.8523C664.112 86.0301 667.136 87.1578 669.452 88.2332L670.294 86.4192ZM660.977 82.9469C656.82 81.6033 652.876 80.0928 649.145 78.416L648.325 80.2402C652.127 81.9489 656.139 83.4853 660.361 84.85L660.977 82.9469ZM649.149 78.4178C645.488 76.7537 642.256 74.8252 639.448 72.6361L638.218 74.2135C641.165 76.5101 644.535 78.5171 648.322 80.2385L649.149 78.4178ZM639.461 72.6462C636.72 70.4377 634.565 67.892 632.981 65.0088L631.228 65.9717C632.945 69.0976 635.275 71.8415 638.205 74.2034L639.461 72.6462ZM632.986 65.0184C631.468 62.1815 630.692 58.8575 630.692 55.0166H628.692C628.692 59.1315 629.525 62.7899 631.223 65.9621L632.986 65.0184ZM630.692 55.0166C630.692 51.3178 631.504 47.9921 633.111 45.0185L631.352 44.0675C629.574 47.3568 628.692 51.0136 628.692 55.0166H630.692ZM633.114 45.0136C634.733 41.9784 637.001 39.3823 639.934 37.2233L638.748 35.6126C635.587 37.9393 633.116 40.7599 631.349 44.0724L633.114 45.0136ZM639.941 37.218C642.881 35.0131 646.367 33.3063 650.416 32.1083L649.848 30.1905C645.602 31.4469 641.895 33.2525 638.741 35.618L639.941 37.218ZM650.413 32.1091C654.499 30.9121 658.995 30.3086 663.906 30.3086V28.3086C658.831 28.3086 654.144 28.9323 649.851 30.1897L650.413 32.1091ZM663.906 30.3086C670.6 30.3086 676.391 31.514 681.308 33.8906L682.178 32.0899C676.939 29.5576 670.839 28.3086 663.906 28.3086V30.3086ZM681.308 33.8906C686.24 36.2745 690.029 39.5236 692.713 43.63L694.387 42.536C691.484 38.0942 687.402 34.6149 682.178 32.0899L681.308 33.8906ZM692.716 43.6358C695.435 47.734 696.803 52.4265 696.803 57.7461H698.803C698.803 52.0631 697.335 46.9802 694.383 42.5302L692.716 43.6358ZM697.803 56.7461H678.887V58.7461H697.803V56.7461ZM679.887 57.7461C679.887 54.8941 679.284 52.3501 678.044 50.1465L676.301 51.127C677.347 52.9858 677.887 55.1814 677.887 57.7461H679.887ZM678.056 50.168C676.852 47.8977 675.002 46.1302 672.555 44.8613L671.634 46.6368C673.757 47.7376 675.294 49.2286 676.29 51.1054L678.056 50.168ZM672.562 44.8648C670.133 43.5819 667.125 42.9717 663.589 42.9717V44.9717C666.908 44.9717 669.57 45.5464 671.628 46.6332L672.562 44.8648ZM663.589 42.9717C660.193 42.9717 657.288 43.4931 654.918 44.5872L655.756 46.4031C657.787 45.4659 660.383 44.9717 663.589 44.9717V42.9717ZM654.932 44.5806C652.589 45.6171 650.772 47.0648 649.547 48.9492L651.224 50.0391C652.2 48.5381 653.684 47.3198 655.741 46.4097L654.932 44.5806ZM649.554 48.9394C648.339 50.7618 647.735 52.8186 647.735 55.0801H649.735C649.735 53.1945 650.232 51.5273 651.218 50.0488L649.554 48.9394ZM647.735 55.0801C647.735 56.8162 648.16 58.4135 649.02 59.8475L650.735 58.8185C650.072 57.7135 649.735 56.4755 649.735 55.0801H647.735ZM649.033 59.8681C649.924 61.2747 651.212 62.5498 652.858 63.7059L654.008 62.0695C652.521 61.0251 651.44 59.9304 650.723 58.798L649.033 59.8681ZM652.858 63.7059C654.495 64.8563 656.485 65.925 658.817 66.9181L659.601 65.078C657.362 64.1245 655.502 63.1197 654.008 62.0695L652.858 63.7059ZM658.817 66.9181C661.141 67.9077 663.819 68.8711 666.848 69.8097L667.44 67.8993C664.459 66.9759 661.848 66.035 659.601 65.078L658.817 66.9181ZM666.854 69.8117C671.848 71.3223 676.215 73.0166 679.963 74.8905L680.857 73.1017C676.988 71.1669 672.511 69.4335 667.433 67.8973L666.854 69.8117ZM679.967 74.8925C683.751 76.7639 686.884 78.8506 689.382 81.1439L690.735 79.6706C688.07 77.2243 684.771 75.0369 680.853 73.0997L679.967 74.8925ZM689.382 81.1439C691.868 83.426 693.73 86.0006 694.982 88.8689L696.815 88.0686C695.444 84.9277 693.412 82.128 690.735 79.6706L689.382 81.1439ZM694.982 88.8689C696.231 91.7285 696.866 94.9955 696.866 98.6885H698.866C698.866 94.7642 698.19 91.2181 696.815 88.0686L694.982 88.8689ZM696.866 98.6885C696.866 102.576 696.11 106.018 694.621 109.037L696.414 109.922C698.057 106.593 698.866 102.841 698.866 98.6885H696.866ZM694.621 109.037C693.128 112.063 690.97 114.628 688.129 116.738L689.322 118.344C692.406 116.053 694.775 113.244 696.414 109.922L694.621 109.037ZM688.129 116.738C685.28 118.855 681.861 120.478 677.857 121.592L678.393 123.519C682.598 122.349 686.247 120.628 689.322 118.344L688.129 116.738ZM677.857 121.592C673.854 122.706 669.355 123.27 664.351 123.27V125.27C669.503 125.27 674.186 124.69 678.393 123.519L677.857 121.592ZM664.351 123.27C659.868 123.27 655.448 122.689 651.088 121.526L650.572 123.458C655.099 124.666 659.693 125.27 664.351 125.27V123.27ZM651.096 121.528C646.752 120.328 642.81 118.532 639.265 116.141L638.147 117.799C641.88 120.317 646.021 122.202 650.564 123.456L651.096 121.528ZM639.27 116.144C635.8 113.776 633.027 110.759 630.943 107.082L629.203 108.068C631.436 112.009 634.418 115.255 638.142 117.796L639.27 116.144ZM630.943 107.082C628.885 103.45 627.836 99.1197 627.836 94.0547H625.836C625.836 99.3998 626.945 104.083 629.203 108.068L630.943 107.082ZM626.836 95.0547H645.942V93.0547H626.836V95.0547ZM644.942 94.0547C644.942 97.0299 645.401 99.611 646.362 101.762L648.188 100.947C647.372 99.1201 646.942 96.8347 646.942 94.0547H644.942ZM646.362 101.762C647.314 103.892 648.663 105.637 650.414 106.974L651.627 105.384C650.162 104.266 649.014 102.795 648.188 100.947L646.362 101.762ZM650.424 106.981C652.194 108.297 654.266 109.238 656.622 109.816L657.099 107.874C654.969 107.351 653.148 106.515 651.617 105.376L650.424 106.981ZM656.626 109.817C658.999 110.388 661.575 110.67 664.351 110.67V108.67C661.709 108.67 659.292 108.402 657.094 107.873L656.626 109.817ZM664.351 110.67C667.735 110.67 670.593 110.194 672.878 109.189L672.073 107.358C670.126 108.215 667.568 108.67 664.351 108.67V110.67ZM672.872 109.192C675.178 108.197 676.943 106.785 678.088 104.925L676.385 103.877C675.498 105.318 674.09 106.488 672.079 107.355L672.872 109.192ZM678.078 104.941C679.245 103.12 679.823 101.069 679.823 98.8154H677.823C677.823 100.709 677.343 102.382 676.394 103.862L678.078 104.941ZM240.581 275L239.581 274.991L239.572 276H240.581V275ZM240.708 260.146V259.146H239.717L239.708 260.138L240.708 260.146ZM273.335 256.782L273.883 257.619L273.89 257.614L273.335 256.782ZM281.079 246.816L280.153 246.439L280.15 246.447L281.079 246.816ZM282.222 213.999L281.256 214.26L281.259 214.271L282.222 213.999ZM270.669 199.399L270.26 200.312L270.272 200.317L270.669 199.399ZM240.2 197.495H239.2V198.495H240.2V197.495ZM240.2 182.578V181.578H239.2V182.578H240.2ZM277.842 185.752L277.46 186.676L277.469 186.68L277.842 185.752ZM291.235 194.702L291.954 194.007L291.235 194.702ZM299.932 208.667L298.995 209.018L298.999 209.027L299.932 208.667ZM299.932 248.975L298.998 248.617L298.995 248.623L299.932 248.975ZM291.235 262.939L290.517 262.244L290.516 262.244L291.235 262.939ZM277.842 271.89L278.215 272.818L278.218 272.816L277.842 271.89ZM251.372 182.578H252.372V181.578H251.372V182.578ZM251.372 275V276H252.372V275H251.372ZM232.329 275H231.329V276H232.329V275ZM232.329 182.578V181.578H231.329V182.578H232.329ZM260.703 274H240.581V276H260.703V274ZM241.581 275.009L241.708 260.155L239.708 260.138L239.581 274.991L241.581 275.009ZM240.708 261.146H260.703V259.146H240.708V261.146ZM260.703 261.146C265.848 261.146 270.259 259.99 273.882 257.619L272.787 255.945C269.555 258.06 265.545 259.146 260.703 259.146V261.146ZM273.89 257.614C277.509 255.201 280.209 251.706 282.008 247.186L280.15 246.447C278.479 250.644 276.016 253.793 272.78 255.95L273.89 257.614ZM282.005 247.194C283.844 242.684 284.745 237.28 284.745 231.011H282.745C282.745 237.098 281.869 242.231 280.153 246.439L282.005 247.194ZM284.745 231.011V226.504H282.745V231.011H284.745ZM284.745 226.504C284.745 221.696 284.23 217.433 283.184 213.727L281.259 214.271C282.244 217.759 282.745 221.833 282.745 226.504H284.745ZM283.187 213.738C282.185 210.034 280.671 206.88 278.625 204.3L277.058 205.543C278.906 207.873 280.312 210.77 281.256 214.26L283.187 213.738ZM278.625 204.3C276.578 201.719 274.055 199.775 271.066 198.482L270.272 200.317C272.954 201.478 275.213 203.216 277.058 205.543L278.625 204.3ZM271.078 198.487C268.092 197.15 264.69 196.495 260.894 196.495V198.495C264.46 198.495 267.575 199.11 270.26 200.312L271.078 198.487ZM260.894 196.495H240.2V198.495H260.894V196.495ZM241.2 197.495V182.578H239.2V197.495H241.2ZM240.2 183.578H260.894V181.578H240.2V183.578ZM260.894 183.578C266.956 183.578 272.474 184.616 277.46 186.676L278.224 184.828C272.969 182.656 267.188 181.578 260.894 181.578V183.578ZM277.469 186.68C282.505 188.703 286.851 191.608 290.517 195.397L291.954 194.007C288.087 190.01 283.504 186.948 278.214 184.824L277.469 186.68ZM290.517 195.397C294.181 199.186 297.009 203.721 298.995 209.018L300.868 208.316C298.792 202.78 295.822 198.005 291.954 194.007L290.517 195.397ZM298.999 209.027C301.022 214.271 302.042 220.135 302.042 226.631H304.042C304.042 219.924 302.988 213.812 300.865 208.307L298.999 209.027ZM302.042 226.631V231.011H304.042V226.631H302.042ZM302.042 231.011C302.042 237.464 301.022 243.329 298.998 248.617L300.866 249.332C302.988 243.787 304.042 237.676 304.042 231.011H302.042ZM298.995 248.623C297.009 253.921 294.181 258.456 290.517 262.244L291.954 263.635C295.822 259.636 298.792 254.862 300.868 249.326L298.995 248.623ZM290.516 262.244C286.894 265.99 282.548 268.897 277.465 270.963L278.218 272.816C283.546 270.65 288.129 267.59 291.954 263.635L290.516 262.244ZM277.469 270.962C272.439 272.982 266.854 274 260.703 274V276C267.078 276 272.919 274.944 278.214 272.818L277.469 270.962ZM250.372 182.578V275H252.372V182.578H250.372ZM251.372 274H232.329V276H251.372V274ZM233.329 275V182.578H231.329V275H233.329ZM232.329 183.578H251.372V181.578H232.329V183.578ZM337.129 182.578H338.129V181.578H337.129V182.578ZM337.129 275V276H338.129V275H337.129ZM318.149 275H317.149V276H318.149V275ZM318.149 182.578V181.578H317.149V182.578H318.149ZM336.129 182.578V275H338.129V182.578H336.129ZM337.129 274H318.149V276H337.129V274ZM319.149 275V182.578H317.149V275H319.149ZM318.149 183.578H337.129V181.578H318.149V183.578ZM393.687 198.384L394.637 198.696L394.668 198.6L394.68 198.499L393.687 198.384ZM368.55 275V276H369.274L369.5 275.312L368.55 275ZM348.301 275L347.363 274.652L346.862 276H348.301V275ZM382.642 182.578V181.578H381.946L381.704 182.23L382.642 182.578ZM395.527 182.578L396.521 182.694L396.651 181.578H395.527V182.578ZM414.57 275L413.62 275.312L413.847 276H414.57V275ZM389.37 198.384L388.378 198.511L388.39 198.606L388.42 198.696L389.37 198.384ZM387.339 182.578V181.578H386.202L386.347 182.706L387.339 182.578ZM400.352 182.578L401.288 182.228L401.045 181.578H400.352V182.578ZM434.883 275V276H436.324L435.82 274.65L434.883 275ZM413.428 240.596H414.428V239.596H413.428V240.596ZM413.428 255.513V256.513H414.428V255.513H413.428ZM364.614 255.513H363.614V256.513H364.614V255.513ZM364.614 240.596V239.596H363.614V240.596H364.614ZM392.736 198.072L367.6 274.688L369.5 275.312L394.637 198.696L392.736 198.072ZM368.55 274H348.301V276H368.55V274ZM349.238 275.348L383.579 182.926L381.704 182.23L347.363 274.652L349.238 275.348ZM382.642 183.578H395.527V181.578H382.642V183.578ZM394.534 182.462L392.693 198.268L394.68 198.499L396.521 182.694L394.534 182.462ZM415.52 274.688L390.32 198.071L388.42 198.696L413.62 275.312L415.52 274.688ZM390.362 198.256L388.331 182.451L386.347 182.706L388.378 198.511L390.362 198.256ZM387.339 183.578H400.352V181.578H387.339V183.578ZM399.415 182.928L433.946 275.35L435.82 274.65L401.288 182.228L399.415 182.928ZM434.883 274H414.57V276H434.883V274ZM412.428 240.596V255.513H414.428V240.596H412.428ZM413.428 254.513H364.614V256.513H413.428V254.513ZM365.614 255.513V240.596H363.614V255.513H365.614ZM364.614 241.596H413.428V239.596H364.614V241.596ZM443.452 182.578V181.578H442.452V182.578H443.452ZM496.138 185.752L495.753 186.675L495.756 186.676L496.138 185.752ZM509.531 223.203L508.628 222.773L508.626 222.778L509.531 223.203ZM502.485 232.026L503.098 232.817L503.099 232.816L502.485 232.026ZM491.885 237.612L491.56 236.667L491.487 236.692L491.419 236.727L491.885 237.612ZM485.854 240.786V241.786H486.102L486.32 241.671L485.854 240.786ZM455.894 240.786L454.894 240.795L454.902 241.786H455.894V240.786ZM455.767 225.933V224.933H454.758L454.767 225.941L455.767 225.933ZM491.313 219.204L490.434 218.729L490.43 218.736L490.426 218.743L491.313 219.204ZM462.495 197.495V196.495H461.495V197.495H462.495ZM462.495 275V276H463.495V275H462.495ZM443.452 275H442.452V276H443.452V275ZM495.122 275L494.232 275.455L494.51 276H495.122V275ZM474.048 233.804L474.042 232.804L472.418 232.814L473.158 234.259L474.048 233.804ZM494.17 233.677L495.054 233.21L494.771 232.673L494.164 232.677L494.17 233.677ZM515.498 274.111H516.498V273.864L516.383 273.645L515.498 274.111ZM515.498 275V276H516.498V275H515.498ZM443.452 183.578H477.92V181.578H443.452V183.578ZM477.92 183.578C484.891 183.578 490.826 184.622 495.753 186.675L496.522 184.829C491.293 182.65 485.083 181.578 477.92 181.578V183.578ZM495.756 186.676C500.714 188.725 504.483 191.737 507.111 195.699L508.778 194.594C505.905 190.262 501.802 187.011 496.52 184.828L495.756 186.676ZM507.111 195.699C509.731 199.65 511.07 204.547 511.07 210.444H513.07C513.07 204.239 511.659 198.937 508.778 194.594L507.111 195.699ZM511.07 210.444C511.07 215.284 510.243 219.383 508.628 222.773L510.434 223.633C512.205 219.914 513.07 215.507 513.07 210.444H511.07ZM508.626 222.778C507.042 226.148 504.793 228.964 501.871 231.237L503.099 232.816C506.271 230.349 508.719 227.283 510.436 223.628L508.626 222.778ZM501.873 231.236C498.966 233.488 495.532 235.301 491.56 236.667L492.21 238.558C496.363 237.13 499.996 235.22 503.098 232.817L501.873 231.236ZM491.419 236.727L485.389 239.901L486.32 241.671L492.351 238.497L491.419 236.727ZM485.854 239.786H455.894V241.786H485.854V239.786ZM456.894 240.778L456.767 225.924L454.767 225.941L454.894 240.795L456.894 240.778ZM455.767 226.933H478.047V224.933H455.767V226.933ZM478.047 226.933C481.502 226.933 484.449 226.321 486.836 225.036L485.888 223.275C483.874 224.359 481.278 224.933 478.047 224.933V226.933ZM486.836 225.036C489.205 223.761 491.003 221.968 492.201 219.665L490.426 218.743C489.423 220.672 487.921 222.18 485.888 223.275L486.836 225.036ZM492.193 219.679C493.427 217.395 494.027 214.773 494.027 211.841H492.027C492.027 214.495 491.485 216.781 490.434 218.729L492.193 219.679ZM494.027 211.841C494.027 208.755 493.454 206.033 492.268 203.706L490.486 204.614C491.5 206.604 492.027 209.002 492.027 211.841H494.027ZM492.268 203.706C491.068 201.352 489.239 199.552 486.816 198.318L485.908 200.1C487.971 201.151 489.486 202.652 490.486 204.614L492.268 203.706ZM486.816 198.318C484.393 197.083 481.411 196.495 477.92 196.495V198.495C481.2 198.495 483.846 199.049 485.908 200.1L486.816 198.318ZM477.92 196.495H462.495V198.495H477.92V196.495ZM461.495 197.495V275H463.495V197.495H461.495ZM462.495 274H443.452V276H462.495V274ZM444.452 275V182.578H442.452V275H444.452ZM496.012 274.545L474.938 233.348L473.158 234.259L494.232 275.455L496.012 274.545ZM474.054 234.804L494.176 234.677L494.164 232.677L474.042 232.804L474.054 234.804ZM493.285 234.143L514.614 274.578L516.383 273.645L495.054 233.21L493.285 234.143ZM514.498 274.111V275H516.498V274.111H514.498ZM515.498 274H495.122V276H515.498V274ZM536.382 182.578L537.291 182.162L537.024 181.578H536.382V182.578ZM555.679 224.727L554.769 225.143L555.679 227.129L556.588 225.143L555.679 224.727ZM574.976 182.578V181.578H574.334L574.066 182.162L574.976 182.578ZM595.732 182.578L596.621 183.038L597.376 181.578H595.732V182.578ZM565.327 241.357L564.439 240.898L564.327 241.114V241.357H565.327ZM565.327 275V276H566.327V275H565.327ZM546.03 275H545.03V276H546.03V275ZM546.03 241.357H547.03V241.114L546.918 240.897L546.03 241.357ZM515.562 182.578V181.578H513.917L514.674 183.038L515.562 182.578ZM535.473 182.994L554.769 225.143L556.588 224.31L537.291 182.162L535.473 182.994ZM556.588 225.143L575.885 182.994L574.066 182.162L554.769 224.31L556.588 225.143ZM574.976 183.578H595.732V181.578H574.976V183.578ZM594.844 182.119L564.439 240.898L566.215 241.817L596.621 183.038L594.844 182.119ZM564.327 241.357V275H566.327V241.357H564.327ZM565.327 274H546.03V276H565.327V274ZM547.03 275V241.357H545.03V275H547.03ZM546.918 240.897L516.449 182.118L514.674 183.038L545.142 241.818L546.918 240.897ZM515.562 183.578H536.382V181.578H515.562V183.578Z" fill="white" mask="url(#path-1-outside-1_4_181)"/>
</g>
<g filter="url(#filter1_d_4_181)">
<mask id="path-3-outside-2_4_181" maskUnits="userSpaceOnUse" x="119" y="25" width="569" height="245" fill="black">
<rect fill="white" x="119" y="25" width="569" height="245"/>
<path d="M197.812 71.375V75.6875C197.812 82.6042 196.875 88.8125 195 94.3125C193.125 99.8125 190.479 104.5 187.062 108.375C183.646 112.208 179.562 115.146 174.812 117.188C170.104 119.229 164.875 120.25 159.125 120.25C153.417 120.25 148.188 119.229 143.438 117.188C138.729 115.146 134.646 112.208 131.188 108.375C127.729 104.5 125.042 99.8125 123.125 94.3125C121.25 88.8125 120.312 82.6042 120.312 75.6875V71.375C120.312 64.4167 121.25 58.2083 123.125 52.75C125 47.25 127.646 42.5625 131.062 38.6875C134.521 34.8125 138.604 31.8542 143.312 29.8125C148.062 27.7708 153.292 26.75 159 26.75C164.75 26.75 169.979 27.7708 174.688 29.8125C179.438 31.8542 183.521 34.8125 186.938 38.6875C190.396 42.5625 193.062 47.25 194.938 52.75C196.854 58.2083 197.812 64.4167 197.812 71.375ZM178.875 75.6875V71.25C178.875 66.4167 178.438 62.1667 177.562 58.5C176.688 54.8333 175.396 51.75 173.688 49.25C171.979 46.75 169.896 44.875 167.438 43.625C164.979 42.3333 162.167 41.6875 159 41.6875C155.833 41.6875 153.021 42.3333 150.562 43.625C148.146 44.875 146.083 46.75 144.375 49.25C142.708 51.75 141.438 54.8333 140.562 58.5C139.688 62.1667 139.25 66.4167 139.25 71.25V75.6875C139.25 80.4792 139.688 84.7292 140.562 88.4375C141.438 92.1042 142.729 95.2083 144.438 97.75C146.146 100.25 148.229 102.146 150.688 103.438C153.146 104.729 155.958 105.375 159.125 105.375C162.292 105.375 165.104 104.729 167.562 103.438C170.021 102.146 172.083 100.25 173.75 97.75C175.417 95.2083 176.688 92.1042 177.562 88.4375C178.438 84.7292 178.875 80.4792 178.875 75.6875ZM261.562 28H280.25V88.125C280.25 95.125 278.75 101.021 275.75 105.812C272.792 110.604 268.688 114.208 263.438 116.625C258.229 119.042 252.229 120.25 245.438 120.25C238.646 120.25 232.604 119.042 227.312 116.625C222.062 114.208 217.938 110.604 214.938 105.812C211.979 101.021 210.5 95.125 210.5 88.125V28H229.25V88.125C229.25 92.2083 229.896 95.5417 231.188 98.125C232.479 100.708 234.333 102.604 236.75 103.812C239.208 105.021 242.104 105.625 245.438 105.625C248.854 105.625 251.75 105.021 254.125 103.812C256.542 102.604 258.375 100.708 259.625 98.125C260.917 95.5417 261.562 92.2083 261.562 88.125V28ZM336.375 28V119H317.688V28H336.375ZM364.375 28V42.6875H290.125V28H364.375ZM410.5 86.5625H387.312V71.9375H410.5C414.083 71.9375 417 71.3542 419.25 70.1875C421.5 68.9792 423.146 67.3125 424.188 65.1875C425.229 63.0625 425.75 60.6667 425.75 58C425.75 55.2917 425.229 52.7708 424.188 50.4375C423.146 48.1042 421.5 46.2292 419.25 44.8125C417 43.3958 414.083 42.6875 410.5 42.6875H393.812V119H375.062V28H410.5C417.625 28 423.729 29.2917 428.812 31.875C433.938 34.4167 437.854 37.9375 440.562 42.4375C443.271 46.9375 444.625 52.0833 444.625 57.875C444.625 63.75 443.271 68.8333 440.562 73.125C437.854 77.4167 433.938 80.7292 428.812 83.0625C423.729 85.3958 417.625 86.5625 410.5 86.5625ZM507.812 28H526.5V88.125C526.5 95.125 525 101.021 522 105.812C519.042 110.604 514.938 114.208 509.688 116.625C504.479 119.042 498.479 120.25 491.688 120.25C484.896 120.25 478.854 119.042 473.562 116.625C468.312 114.208 464.188 110.604 461.188 105.812C458.229 101.021 456.75 95.125 456.75 88.125V28H475.5V88.125C475.5 92.2083 476.146 95.5417 477.438 98.125C478.729 100.708 480.583 102.604 483 103.812C485.458 105.021 488.354 105.625 491.688 105.625C495.104 105.625 498 105.021 500.375 103.812C502.792 102.604 504.625 100.708 505.875 98.125C507.167 95.5417 507.812 92.2083 507.812 88.125V28ZM582.625 28V119H563.938V28H582.625ZM610.625 28V42.6875H536.375V28H610.625ZM667.688 95.1875C667.688 93.5625 667.438 92.1042 666.938 90.8125C666.479 89.4792 665.604 88.2708 664.312 87.1875C663.021 86.0625 661.208 84.9583 658.875 83.875C656.542 82.7917 653.521 81.6667 649.812 80.5C645.688 79.1667 641.771 77.6667 638.062 76C634.396 74.3333 631.146 72.3958 628.312 70.1875C625.521 67.9375 623.312 65.3333 621.688 62.375C620.104 59.4167 619.312 55.9792 619.312 52.0625C619.312 48.2708 620.146 44.8333 621.812 41.75C623.479 38.625 625.812 35.9583 628.812 33.75C631.812 31.5 635.354 29.7708 639.438 28.5625C643.562 27.3542 648.083 26.75 653 26.75C659.708 26.75 665.562 27.9583 670.562 30.375C675.562 32.7917 679.438 36.1042 682.188 40.3125C684.979 44.5208 686.375 49.3333 686.375 54.75H667.75C667.75 52.0833 667.188 49.75 666.062 47.75C664.979 45.7083 663.312 44.1042 661.062 42.9375C658.854 41.7708 656.062 41.1875 652.688 41.1875C649.438 41.1875 646.729 41.6875 644.562 42.6875C642.396 43.6458 640.771 44.9583 639.688 46.625C638.604 48.25 638.062 50.0833 638.062 52.125C638.062 53.6667 638.438 55.0625 639.188 56.3125C639.979 57.5625 641.146 58.7292 642.688 59.8125C644.229 60.8958 646.125 61.9167 648.375 62.875C650.625 63.8333 653.229 64.7708 656.188 65.6875C661.146 67.1875 665.5 68.875 669.25 70.75C673.042 72.625 676.208 74.7292 678.75 77.0625C681.292 79.3958 683.208 82.0417 684.5 85C685.792 87.9583 686.438 91.3125 686.438 95.0625C686.438 99.0208 685.667 102.562 684.125 105.688C682.583 108.812 680.354 111.458 677.438 113.625C674.521 115.792 671.042 117.438 667 118.562C662.958 119.688 658.438 120.25 653.438 120.25C648.938 120.25 644.5 119.667 640.125 118.5C635.75 117.292 631.771 115.479 628.188 113.062C624.646 110.646 621.812 107.562 619.688 103.812C617.562 100.062 616.5 95.625 616.5 90.5H635.312C635.312 93.3333 635.75 95.7292 636.625 97.6875C637.5 99.6458 638.729 101.229 640.312 102.438C641.938 103.646 643.854 104.521 646.062 105.062C648.312 105.604 650.771 105.875 653.438 105.875C656.688 105.875 659.354 105.417 661.438 104.5C663.562 103.583 665.125 102.312 666.125 100.688C667.167 99.0625 667.688 97.2292 667.688 95.1875ZM256 269H236.188L236.312 254.375H256C260.917 254.375 265.062 253.271 268.438 251.062C271.812 248.812 274.354 245.542 276.062 241.25C277.812 236.958 278.688 231.771 278.688 225.688V221.25C278.688 216.583 278.188 212.479 277.188 208.938C276.229 205.396 274.792 202.417 272.875 200C270.958 197.583 268.604 195.771 265.812 194.562C263.021 193.312 259.812 192.688 256.188 192.688H235.812V178H256.188C262.271 178 267.833 179.042 272.875 181.125C277.958 183.167 282.354 186.104 286.062 189.938C289.771 193.771 292.625 198.354 294.625 203.688C296.667 208.979 297.688 214.875 297.688 221.375V225.688C297.688 232.146 296.667 238.042 294.625 243.375C292.625 248.708 289.771 253.292 286.062 257.125C282.396 260.917 278 263.854 272.875 265.938C267.792 267.979 262.167 269 256 269ZM246.812 178V269H228.062V178H246.812ZM331.25 178V269H312.562V178H331.25ZM386.938 193.562L362.188 269H342.25L376.062 178H388.75L386.938 193.562ZM407.5 269L382.688 193.562L380.688 178H393.5L427.5 269H407.5ZM406.375 235.125V249.812H358.312V235.125H406.375ZM435.938 178H469.875C476.833 178 482.812 179.042 487.812 181.125C492.854 183.208 496.729 186.292 499.438 190.375C502.146 194.458 503.5 199.479 503.5 205.438C503.5 210.312 502.667 214.5 501 218C499.375 221.458 497.062 224.354 494.062 226.688C491.104 228.979 487.625 230.812 483.625 232.188L477.688 235.312H448.188L448.062 220.688H470C473.292 220.688 476.021 220.104 478.188 218.938C480.354 217.771 481.979 216.146 483.062 214.062C484.188 211.979 484.75 209.562 484.75 206.812C484.75 203.896 484.208 201.375 483.125 199.25C482.042 197.125 480.396 195.5 478.188 194.375C475.979 193.25 473.208 192.688 469.875 192.688H454.688V269H435.938V178ZM486.812 269L466.062 228.438L485.875 228.312L506.875 268.125V269H486.812ZM527.438 178L546.438 219.5L565.438 178H585.875L555.938 235.875V269H536.938V235.875L506.938 178H527.438Z"/>
</mask>
<path d="M187.062 108.375L187.809 109.04L187.813 109.036L187.062 108.375ZM174.812 117.188L174.418 116.269L174.415 116.27L174.812 117.188ZM143.438 117.188L143.04 118.105L143.043 118.106L143.438 117.188ZM131.188 108.375L130.441 109.041L130.445 109.045L131.188 108.375ZM123.125 94.3125L122.178 94.6352L122.181 94.6416L123.125 94.3125ZM123.125 52.75L124.071 53.0749L124.072 53.0727L123.125 52.75ZM131.062 38.6875L130.316 38.0216L130.312 38.0261L131.062 38.6875ZM143.312 29.8125L142.918 28.8938L142.915 28.895L143.312 29.8125ZM174.688 29.8125L174.29 30.73L174.293 30.7312L174.688 29.8125ZM186.938 38.6875L186.187 39.3489L186.191 39.3534L186.938 38.6875ZM194.938 52.75L193.991 53.0727L193.994 53.0813L194.938 52.75ZM177.562 58.5L176.59 58.7321L177.562 58.5ZM167.438 43.625L166.972 44.5103L166.984 44.5164L167.438 43.625ZM150.562 43.625L151.022 44.5132L151.028 44.5102L150.562 43.625ZM144.375 49.25L143.549 48.6858L143.543 48.6953L144.375 49.25ZM140.562 88.4375L139.589 88.6672L139.59 88.6696L140.562 88.4375ZM144.438 97.75L143.608 98.3079L143.612 98.3142L144.438 97.75ZM150.688 103.438L150.222 104.323L150.688 103.438ZM173.75 97.75L174.582 98.3047L174.586 98.2984L173.75 97.75ZM177.562 88.4375L178.535 88.6696L178.536 88.6672L177.562 88.4375ZM196.812 71.375V75.6875H198.812V71.375H196.812ZM196.812 75.6875C196.812 82.5147 195.887 88.6113 194.053 93.9898L195.947 94.6352C197.863 89.0137 198.812 82.6936 198.812 75.6875H196.812ZM194.053 93.9898C192.216 99.3806 189.632 103.949 186.312 107.714L187.813 109.036C191.327 105.051 194.034 100.244 195.947 94.6352L194.053 93.9898ZM186.316 107.71C182.997 111.433 179.034 114.284 174.418 116.269L175.207 118.106C180.091 116.007 184.294 112.984 187.809 109.04L186.316 107.71ZM174.415 116.27C169.846 118.251 164.755 119.25 159.125 119.25V121.25C164.995 121.25 170.362 120.207 175.21 118.105L174.415 116.27ZM159.125 119.25C153.538 119.25 148.445 118.251 143.832 116.269L143.043 118.106C147.93 120.207 153.295 121.25 159.125 121.25V119.25ZM143.835 116.27C139.259 114.286 135.293 111.433 131.93 107.705L130.445 109.045C133.999 112.984 138.199 116.006 143.04 118.105L143.835 116.27ZM131.934 107.709C128.573 103.944 125.948 99.3743 124.069 93.9834L122.181 94.6416C124.135 100.251 126.885 105.056 130.441 109.041L131.934 107.709ZM124.072 93.9898C122.238 88.6113 121.312 82.5147 121.312 75.6875H119.312C119.312 82.6936 120.262 89.0137 122.178 94.6352L124.072 93.9898ZM121.312 75.6875V71.375H119.312V75.6875H121.312ZM121.312 71.375C121.312 64.5052 122.238 58.4097 124.071 53.0749L122.179 52.4251C120.262 58.007 119.312 64.3281 119.312 71.375H121.312ZM124.072 53.0727C125.909 47.6819 128.493 43.1134 131.813 39.3489L130.312 38.0261C126.798 42.0116 124.091 46.8181 122.178 52.4273L124.072 53.0727ZM131.809 39.3534C135.172 35.5851 139.137 32.7133 143.71 30.73L142.915 28.895C138.072 30.9951 133.87 34.0399 130.316 38.0216L131.809 39.3534ZM143.707 30.7312C148.32 28.7485 153.413 27.75 159 27.75V25.75C153.17 25.75 147.805 26.7931 142.918 28.8938L143.707 30.7312ZM159 27.75C164.63 27.75 169.721 28.7489 174.29 30.73L175.085 28.895C170.237 26.7927 164.87 25.75 159 25.75V27.75ZM174.293 30.7312C178.907 32.7145 182.869 35.585 186.187 39.3489L187.688 38.0261C184.173 34.04 179.968 30.9938 175.082 28.8938L174.293 30.7312ZM186.191 39.3534C189.551 43.1173 192.154 47.6843 193.991 53.0727L195.884 52.4273C193.971 46.8157 191.241 42.0077 187.684 38.0216L186.191 39.3534ZM193.994 53.0813C195.867 58.4141 196.812 64.5073 196.812 71.375H198.812C198.812 64.326 197.842 58.0026 195.881 52.4187L193.994 53.0813ZM179.875 75.6875V71.25H177.875V75.6875H179.875ZM179.875 71.25C179.875 66.3592 179.433 62.0284 178.535 58.2679L176.59 58.7321C177.442 62.3049 177.875 66.4741 177.875 71.25H179.875ZM178.535 58.2679C177.639 54.5105 176.305 51.3079 174.513 48.6858L172.862 49.8142C174.487 52.1921 175.736 55.1562 176.59 58.7321L178.535 58.2679ZM174.513 48.6858C172.72 46.0611 170.513 44.067 167.891 42.7336L166.984 44.5164C169.279 45.683 171.239 47.4389 172.862 49.8142L174.513 48.6858ZM167.903 42.7398C165.282 41.3627 162.306 40.6875 159 40.6875V42.6875C162.028 42.6875 164.677 43.3039 166.972 44.5102L167.903 42.7398ZM159 40.6875C155.694 40.6875 152.718 41.3627 150.097 42.7398L151.028 44.5102C153.323 43.3039 155.972 42.6875 159 42.6875V40.6875ZM150.103 42.7368C147.523 44.0711 145.34 46.0649 143.549 48.6858L145.201 49.8142C146.826 47.4351 148.768 45.6789 151.022 44.5132L150.103 42.7368ZM143.543 48.6953C141.796 51.3151 140.486 54.5143 139.59 58.2679L141.535 58.7321C142.389 55.1524 143.62 52.1849 145.207 49.8047L143.543 48.6953ZM139.59 58.2679C138.692 62.0284 138.25 66.3592 138.25 71.25H140.25C140.25 66.4741 140.683 62.3049 141.535 58.7321L139.59 58.2679ZM138.25 71.25V75.6875H140.25V71.25H138.25ZM138.25 75.6875C138.25 80.5377 138.693 84.8672 139.589 88.6672L141.536 88.2078C140.682 84.5911 140.25 80.4207 140.25 75.6875H138.25ZM139.59 88.6696C140.486 92.4266 141.819 95.6471 143.608 98.3078L145.267 97.1922C143.639 94.7696 142.389 91.7817 141.535 88.2054L139.59 88.6696ZM143.612 98.3142C145.404 100.937 147.607 102.948 150.222 104.323L151.153 102.552C148.852 101.343 146.888 99.5634 145.263 97.1858L143.612 98.3142ZM150.222 104.323C152.843 105.7 155.819 106.375 159.125 106.375V104.375C156.097 104.375 153.448 103.759 151.153 102.552L150.222 104.323ZM159.125 106.375C162.431 106.375 165.407 105.7 168.028 104.323L167.097 102.552C164.802 103.759 162.153 104.375 159.125 104.375V106.375ZM168.028 104.323C170.646 102.947 172.83 100.932 174.582 98.3047L172.918 97.1953C171.336 99.5679 169.396 101.345 167.097 102.552L168.028 104.323ZM174.586 98.2984C176.33 95.6399 177.64 92.4228 178.535 88.6696L176.59 88.2054C175.735 91.7855 174.504 94.7768 172.914 97.2016L174.586 98.2984ZM178.536 88.6672C179.432 84.8672 179.875 80.5377 179.875 75.6875H177.875C177.875 80.4207 177.443 84.5911 176.589 88.2078L178.536 88.6672ZM261.562 28V27H260.562V28H261.562ZM280.25 28H281.25V27H280.25V28ZM275.75 105.812L274.902 105.282L274.899 105.287L275.75 105.812ZM263.438 116.625L263.019 115.717L263.017 115.718L263.438 116.625ZM227.312 116.625L226.894 117.533L226.897 117.535L227.312 116.625ZM214.938 105.812L214.087 106.338L214.09 106.343L214.938 105.812ZM210.5 28V27H209.5V28H210.5ZM229.25 28H230.25V27H229.25V28ZM236.75 103.812L236.303 104.707L236.309 104.71L236.75 103.812ZM254.125 103.812L253.678 102.918L253.672 102.921L254.125 103.812ZM259.625 98.125L258.73 97.6777L258.725 97.6894L259.625 98.125ZM261.562 29H280.25V27H261.562V29ZM279.25 28V88.125H281.25V28H279.25ZM279.25 88.125C279.25 94.982 277.782 100.683 274.902 105.282L276.598 106.343C279.718 101.358 281.25 95.268 281.25 88.125H279.25ZM274.899 105.287C272.047 109.907 268.096 113.38 263.019 115.717L263.856 117.533C269.279 115.037 273.536 111.302 276.601 106.338L274.899 105.287ZM263.017 115.718C257.962 118.063 252.11 119.25 245.438 119.25V121.25C252.348 121.25 258.496 120.02 263.858 117.532L263.017 115.718ZM245.438 119.25C238.765 119.25 232.869 118.063 227.728 115.715L226.897 117.535C232.339 120.02 238.526 121.25 245.438 121.25V119.25ZM227.731 115.717C222.653 113.379 218.679 109.905 215.785 105.282L214.09 106.343C217.196 111.304 221.472 115.037 226.894 117.533L227.731 115.717ZM215.788 105.287C212.949 100.688 211.5 94.9844 211.5 88.125H209.5C209.5 95.2656 211.01 101.354 214.087 106.338L215.788 105.287ZM211.5 88.125V28H209.5V88.125H211.5ZM210.5 29H229.25V27H210.5V29ZM228.25 28V88.125H230.25V28H228.25ZM228.25 88.125C228.25 92.3034 228.909 95.8047 230.293 98.5722L232.082 97.6778C230.882 95.2786 230.25 92.1132 230.25 88.125H228.25ZM230.293 98.5722C231.674 101.335 233.679 103.395 236.303 104.707L237.197 102.918C234.988 101.813 233.284 100.082 232.082 97.6778L230.293 98.5722ZM236.309 104.71C238.931 105.999 241.984 106.625 245.438 106.625V104.625C242.224 104.625 239.486 104.043 237.191 102.915L236.309 104.71ZM245.438 106.625C248.969 106.625 252.029 106.001 254.578 104.704L253.672 102.921C251.471 104.041 248.74 104.625 245.438 104.625V106.625ZM254.572 104.707C257.199 103.393 259.185 101.329 260.525 98.5606L258.725 97.6894C257.565 100.087 255.884 101.815 253.678 102.918L254.572 104.707ZM260.519 98.5722C261.903 95.8047 262.562 92.3034 262.562 88.125H260.562C260.562 92.1132 259.93 95.2786 258.731 97.6778L260.519 98.5722ZM262.562 88.125V28H260.562V88.125H262.562ZM336.375 28H337.375V27H336.375V28ZM336.375 119V120H337.375V119H336.375ZM317.688 119H316.688V120H317.688V119ZM317.688 28V27H316.688V28H317.688ZM364.375 28H365.375V27H364.375V28ZM364.375 42.6875V43.6875H365.375V42.6875H364.375ZM290.125 42.6875H289.125V43.6875H290.125V42.6875ZM290.125 28V27H289.125V28H290.125ZM335.375 28V119H337.375V28H335.375ZM336.375 118H317.688V120H336.375V118ZM318.688 119V28H316.688V119H318.688ZM317.688 29H336.375V27H317.688V29ZM363.375 28V42.6875H365.375V28H363.375ZM364.375 41.6875H290.125V43.6875H364.375V41.6875ZM291.125 42.6875V28H289.125V42.6875H291.125ZM290.125 29H364.375V27H290.125V29ZM387.312 86.5625H386.312V87.5625H387.312V86.5625ZM387.312 71.9375V70.9375H386.312V71.9375H387.312ZM419.25 70.1875L419.71 71.0753L419.717 71.0719L419.723 71.0685L419.25 70.1875ZM393.812 42.6875V41.6875H392.812V42.6875H393.812ZM393.812 119V120H394.812V119H393.812ZM375.062 119H374.062V120H375.062V119ZM375.062 28V27H374.062V28H375.062ZM428.812 31.875L428.359 32.7665L428.368 32.7709L428.812 31.875ZM428.812 83.0625L428.398 82.1524L428.395 82.1537L428.812 83.0625ZM410.5 85.5625H387.312V87.5625H410.5V85.5625ZM388.312 86.5625V71.9375H386.312V86.5625H388.312ZM387.312 72.9375H410.5V70.9375H387.312V72.9375ZM410.5 72.9375C414.181 72.9375 417.272 72.3398 419.71 71.0753L418.79 69.2997C416.728 70.3685 413.985 70.9375 410.5 70.9375V72.9375ZM419.723 71.0685C422.142 69.7695 423.944 67.9555 425.085 65.6277L423.29 64.7473C422.347 66.6695 420.858 68.1888 418.777 69.3065L419.723 71.0685ZM425.085 65.6277C426.202 63.3492 426.75 60.7998 426.75 58H424.75C424.75 60.5336 424.256 62.7758 423.29 64.7473L425.085 65.6277ZM426.75 58C426.75 55.1598 426.203 52.4991 425.101 50.0299L423.274 50.8451C424.255 53.0426 424.75 55.4236 424.75 58H426.75ZM425.101 50.0299C423.975 47.5083 422.193 45.4838 419.783 43.9663L418.717 45.6587C420.807 46.9745 422.317 48.7 423.274 50.8451L425.101 50.0299ZM419.783 43.9663C417.327 42.4199 414.208 41.6875 410.5 41.6875V43.6875C413.958 43.6875 416.673 44.3718 418.717 45.6587L419.783 43.9663ZM410.5 41.6875H393.812V43.6875H410.5V41.6875ZM392.812 42.6875V119H394.812V42.6875H392.812ZM393.812 118H375.062V120H393.812V118ZM376.062 119V28H374.062V119H376.062ZM375.062 29H410.5V27H375.062V29ZM410.5 29C417.506 29 423.447 30.2701 428.359 32.7665L429.266 30.9835C424.011 28.3133 417.744 27 410.5 27V29ZM428.368 32.7709C433.338 35.2356 437.105 38.6312 439.706 42.9532L441.419 41.9218C438.604 37.2438 434.537 33.5977 429.257 30.9791L428.368 32.7709ZM439.706 42.9532C442.311 47.2818 443.625 52.2458 443.625 57.875H445.625C445.625 51.9209 444.231 46.5932 441.419 41.9218L439.706 42.9532ZM443.625 57.875C443.625 63.5915 442.309 68.4833 439.717 72.5913L441.408 73.6587C444.232 69.1834 445.625 63.9085 445.625 57.875H443.625ZM439.717 72.5913C437.124 76.7004 433.366 79.8906 428.398 82.1524L429.227 83.9726C434.509 81.5677 438.585 78.133 441.408 73.6587L439.717 72.5913ZM428.395 82.1537C423.474 84.4129 417.519 85.5625 410.5 85.5625V87.5625C417.731 87.5625 423.985 86.3788 429.23 83.9713L428.395 82.1537ZM507.812 28V27H506.812V28H507.812ZM526.5 28H527.5V27H526.5V28ZM522 105.812L521.152 105.282L521.149 105.287L522 105.812ZM509.688 116.625L509.269 115.717L509.267 115.718L509.688 116.625ZM473.562 116.625L473.144 117.533L473.147 117.535L473.562 116.625ZM461.188 105.812L460.337 106.338L460.34 106.343L461.188 105.812ZM456.75 28V27H455.75V28H456.75ZM475.5 28H476.5V27H475.5V28ZM483 103.812L482.553 104.707L482.559 104.71L483 103.812ZM500.375 103.812L499.928 102.918L499.922 102.921L500.375 103.812ZM505.875 98.125L504.98 97.6777L504.975 97.6894L505.875 98.125ZM507.812 29H526.5V27H507.812V29ZM525.5 28V88.125H527.5V28H525.5ZM525.5 88.125C525.5 94.982 524.032 100.683 521.152 105.282L522.848 106.343C525.968 101.358 527.5 95.268 527.5 88.125H525.5ZM521.149 105.287C518.297 109.907 514.346 113.38 509.269 115.717L510.106 117.533C515.529 115.037 519.786 111.302 522.851 106.338L521.149 105.287ZM509.267 115.718C504.212 118.063 498.36 119.25 491.688 119.25V121.25C498.598 121.25 504.746 120.02 510.108 117.532L509.267 115.718ZM491.688 119.25C485.015 119.25 479.119 118.063 473.978 115.715L473.147 117.535C478.589 120.02 484.776 121.25 491.688 121.25V119.25ZM473.981 115.717C468.903 113.379 464.929 109.905 462.035 105.282L460.34 106.343C463.446 111.304 467.722 115.037 473.144 117.533L473.981 115.717ZM462.038 105.287C459.199 100.688 457.75 94.9844 457.75 88.125H455.75C455.75 95.2656 457.26 101.354 460.337 106.338L462.038 105.287ZM457.75 88.125V28H455.75V88.125H457.75ZM456.75 29H475.5V27H456.75V29ZM474.5 28V88.125H476.5V28H474.5ZM474.5 88.125C474.5 92.3034 475.159 95.8047 476.543 98.5722L478.332 97.6778C477.132 95.2786 476.5 92.1132 476.5 88.125H474.5ZM476.543 98.5722C477.924 101.335 479.929 103.395 482.553 104.707L483.447 102.918C481.238 101.813 479.534 100.082 478.332 97.6778L476.543 98.5722ZM482.559 104.71C485.181 105.999 488.234 106.625 491.688 106.625V104.625C488.474 104.625 485.736 104.043 483.441 102.915L482.559 104.71ZM491.688 106.625C495.219 106.625 498.279 106.001 500.828 104.704L499.922 102.921C497.721 104.041 494.99 104.625 491.688 104.625V106.625ZM500.822 104.707C503.449 103.393 505.435 101.329 506.775 98.5606L504.975 97.6894C503.815 100.087 502.134 101.815 499.928 102.918L500.822 104.707ZM506.769 98.5722C508.153 95.8047 508.812 92.3034 508.812 88.125H506.812C506.812 92.1132 506.18 95.2786 504.981 97.6778L506.769 98.5722ZM508.812 88.125V28H506.812V88.125H508.812ZM582.625 28H583.625V27H582.625V28ZM582.625 119V120H583.625V119H582.625ZM563.938 119H562.938V120H563.938V119ZM563.938 28V27H562.938V28H563.938ZM610.625 28H611.625V27H610.625V28ZM610.625 42.6875V43.6875H611.625V42.6875H610.625ZM536.375 42.6875H535.375V43.6875H536.375V42.6875ZM536.375 28V27H535.375V28H536.375ZM581.625 28V119H583.625V28H581.625ZM582.625 118H563.938V120H582.625V118ZM564.938 119V28H562.938V119H564.938ZM563.938 29H582.625V27H563.938V29ZM609.625 28V42.6875H611.625V28H609.625ZM610.625 41.6875H536.375V43.6875H610.625V41.6875ZM537.375 42.6875V28H535.375V42.6875H537.375ZM536.375 29H610.625V27H536.375V29ZM666.938 90.8125L665.992 91.1376L665.998 91.1557L666.005 91.1735L666.938 90.8125ZM664.312 87.1875L663.656 87.9416L663.663 87.9477L663.67 87.9537L664.312 87.1875ZM649.812 80.5L649.505 81.4516L649.512 81.4539L649.812 80.5ZM638.062 76L637.649 76.9104L637.653 76.9121L638.062 76ZM628.312 70.1875L627.685 70.9661L627.691 70.9712L627.698 70.9762L628.312 70.1875ZM621.688 62.375L620.806 62.8469L620.811 62.8564L621.688 62.375ZM621.812 41.75L622.692 42.2255L622.695 42.2206L621.812 41.75ZM628.812 33.75L629.405 34.5554L629.412 34.55L628.812 33.75ZM639.438 28.5625L639.156 27.6028L639.154 27.6036L639.438 28.5625ZM682.188 40.3125L681.35 40.8595L681.354 40.8653L682.188 40.3125ZM686.375 54.75V55.75H687.375V54.75H686.375ZM667.75 54.75H666.75V55.75H667.75V54.75ZM666.062 47.75L665.179 48.2187L665.185 48.2296L665.191 48.2403L666.062 47.75ZM661.062 42.9375L660.595 43.8217L660.602 43.8253L661.062 42.9375ZM644.562 42.6875L644.967 43.602L644.974 43.5988L644.982 43.5955L644.562 42.6875ZM639.688 46.625L640.52 47.1797L640.526 47.17L639.688 46.625ZM639.188 56.3125L638.33 56.827L638.336 56.8373L638.343 56.8476L639.188 56.3125ZM642.688 59.8125L643.262 58.9943L642.688 59.8125ZM656.188 65.6875L655.892 66.6427L655.898 66.6447L656.188 65.6875ZM669.25 70.75L668.803 71.6444L668.807 71.6464L669.25 70.75ZM684.5 85L683.584 85.4001L684.5 85ZM677.438 113.625L676.841 112.822L677.438 113.625ZM640.125 118.5L639.859 119.464L639.867 119.466L640.125 118.5ZM628.188 113.062L627.624 113.889L627.628 113.892L628.188 113.062ZM616.5 90.5V89.5H615.5V90.5H616.5ZM635.312 90.5H636.312V89.5H635.312V90.5ZM640.312 102.438L639.706 103.233L639.716 103.24L640.312 102.438ZM646.062 105.062L645.824 106.034L645.828 106.035L646.062 105.062ZM661.438 104.5L661.041 103.582L661.035 103.585L661.438 104.5ZM666.125 100.688L665.283 100.148L665.278 100.156L665.273 100.163L666.125 100.688ZM668.688 95.1875C668.688 93.46 668.422 91.8764 667.87 90.4515L666.005 91.1735C666.453 92.3319 666.688 93.665 666.688 95.1875H668.688ZM667.883 90.4874C667.355 88.9513 666.359 87.5984 664.955 86.4213L663.67 87.9537C664.85 88.9432 665.603 90.007 665.992 91.1376L667.883 90.4874ZM664.969 86.4334C663.581 85.224 661.677 84.0732 659.296 82.968L658.454 84.782C660.74 85.8435 662.461 86.901 663.656 87.9416L664.969 86.4334ZM659.296 82.968C656.909 81.8597 653.844 80.7199 650.113 79.5461L649.512 81.4539C653.198 82.6134 656.174 83.7236 658.454 84.782L659.296 82.968ZM650.12 79.5485C646.028 78.2257 642.145 76.7386 638.472 75.0879L637.653 76.9121C641.396 78.5947 645.347 80.1077 649.505 81.4515L650.12 79.5485ZM638.476 75.0896C634.873 73.4516 631.692 71.5534 628.927 69.3988L627.698 70.9762C630.6 73.2383 633.919 75.215 637.649 76.9104L638.476 75.0896ZM628.94 69.4089C626.244 67.2356 624.122 64.7305 622.564 61.8936L620.811 62.8564C622.503 65.9361 624.798 68.6394 627.685 70.9661L628.94 69.4089ZM622.569 61.9031C621.076 59.1125 620.312 55.8422 620.312 52.0625H618.312C618.312 56.1162 619.133 59.7208 620.806 62.8469L622.569 61.9031ZM620.312 52.0625C620.312 48.4229 621.111 45.151 622.692 42.2255L620.933 41.2745C619.181 44.5157 618.312 48.1187 618.312 52.0625H620.312ZM622.695 42.2206C624.288 39.2342 626.519 36.6798 629.405 34.5553L628.22 32.9447C625.106 35.2369 622.671 38.0158 620.93 41.2794L622.695 42.2206ZM629.412 34.55C632.305 32.3803 635.737 30.7005 639.721 29.5214L639.154 27.6036C634.972 28.8412 631.32 30.6197 628.213 32.95L629.412 34.55ZM639.719 29.5222C643.74 28.3441 648.165 27.75 653 27.75V25.75C648.002 25.75 643.385 26.3642 639.156 27.6028L639.719 29.5222ZM653 27.75C659.589 27.75 665.288 28.9365 670.127 31.2753L670.998 29.4747C665.837 26.9802 659.828 25.75 653 25.75V27.75ZM670.127 31.2753C674.981 33.6215 678.71 36.8189 681.35 40.8595L683.025 39.7655C680.165 35.3894 676.144 31.9619 670.998 29.4747L670.127 31.2753ZM681.354 40.8653C684.029 44.8977 685.375 49.515 685.375 54.75H687.375C687.375 49.1516 685.929 44.1439 683.021 39.7597L681.354 40.8653ZM686.375 53.75H667.75V55.75H686.375V53.75ZM668.75 54.75C668.75 51.9397 668.156 49.4321 666.934 47.2597L665.191 48.2403C666.219 50.0679 666.75 52.227 666.75 54.75H668.75ZM666.946 47.2813C665.758 45.0429 663.935 43.3004 661.523 42.0497L660.602 43.8253C662.69 44.9079 664.2 46.3738 665.179 48.2187L666.946 47.2813ZM661.53 42.0533C659.136 40.7886 656.171 40.1875 652.688 40.1875V42.1875C655.954 42.1875 658.573 42.7531 660.595 43.8217L661.53 42.0533ZM652.688 40.1875C649.342 40.1875 646.48 40.7011 644.143 41.7795L644.982 43.5955C646.978 42.6739 649.533 42.1875 652.688 42.1875V40.1875ZM644.158 41.773C641.848 42.7945 640.057 44.2217 638.849 46.08L640.526 47.17C641.485 45.695 642.943 44.4972 644.967 43.602L644.158 41.773ZM638.855 46.0703C637.657 47.8673 637.062 49.8954 637.062 52.125H639.062C639.062 50.2713 639.551 48.6327 640.52 47.1797L638.855 46.0703ZM637.062 52.125C637.062 53.837 637.481 55.4125 638.33 56.827L640.045 55.798C639.394 54.7125 639.062 53.4963 639.062 52.125H637.062ZM638.343 56.8476C639.221 58.2347 640.491 59.4915 642.113 60.6307L643.262 58.9943C641.8 57.9668 640.737 56.8903 640.032 55.7774L638.343 56.8476ZM642.113 60.6307C643.726 61.7641 645.687 62.8169 647.983 63.795L648.767 61.955C646.563 61.0164 644.733 60.0275 643.262 58.9943L642.113 60.6307ZM647.983 63.795C650.271 64.7697 652.909 65.7185 655.892 66.6427L656.483 64.7323C653.55 63.8232 650.979 62.897 648.767 61.955L647.983 63.795ZM655.898 66.6447C660.814 68.1319 665.114 69.7999 668.803 71.6444L669.697 69.8556C665.886 67.9501 661.478 66.2431 656.477 64.7303L655.898 66.6447ZM668.807 71.6464C672.532 73.4885 675.615 75.5423 678.074 77.7992L679.426 76.3258C676.801 73.916 673.551 71.7615 669.693 69.8536L668.807 71.6464ZM678.074 77.7992C680.52 80.0449 682.351 82.5781 683.584 85.4001L685.416 84.5999C684.065 81.5052 682.063 78.7468 679.426 76.3258L678.074 77.7992ZM683.584 85.4001C684.812 88.2135 685.438 91.4281 685.438 95.0625H687.438C687.438 91.1969 686.771 87.7032 685.416 84.5999L683.584 85.4001ZM685.438 95.0625C685.438 98.8884 684.693 102.275 683.228 105.245L685.022 106.13C686.64 102.85 687.438 99.1533 687.438 95.0625H685.438ZM683.228 105.245C681.76 108.222 679.636 110.746 676.841 112.822L678.034 114.428C681.072 112.171 683.407 109.403 685.022 106.13L683.228 105.245ZM676.841 112.822C674.037 114.905 670.673 116.502 666.732 117.599L667.268 119.526C671.41 118.373 675.005 116.678 678.034 114.428L676.841 112.822ZM666.732 117.599C662.792 118.696 658.364 119.25 653.438 119.25V121.25C658.511 121.25 663.124 120.679 667.268 119.526L666.732 117.599ZM653.438 119.25C649.025 119.25 644.674 118.678 640.383 117.534L639.867 119.466C644.326 120.655 648.85 121.25 653.438 121.25V119.25ZM640.391 117.536C636.115 116.355 632.236 114.587 628.747 112.233L627.628 113.892C631.306 116.372 635.385 118.228 639.859 119.464L640.391 117.536ZM628.751 112.236C625.336 109.906 622.608 106.937 620.557 103.319L618.818 104.306C621.017 108.188 623.955 111.385 627.624 113.889L628.751 112.236ZM620.557 103.319C618.533 99.746 617.5 95.4849 617.5 90.5H615.5C615.5 95.7651 616.592 100.379 618.818 104.306L620.557 103.319ZM616.5 91.5H635.312V89.5H616.5V91.5ZM634.312 90.5C634.312 93.431 634.764 95.9746 635.712 98.0954L637.538 97.2796C636.736 95.4837 636.312 93.2357 636.312 90.5H634.312ZM635.712 98.0954C636.65 100.194 637.98 101.915 639.706 103.232L640.919 101.643C639.479 100.543 638.35 99.0974 637.538 97.2796L635.712 98.0954ZM639.716 103.24C641.46 104.537 643.502 105.464 645.824 106.034L646.301 104.091C644.206 103.577 642.415 102.755 640.909 101.635L639.716 103.24ZM645.828 106.035C648.166 106.597 650.704 106.875 653.438 106.875V104.875C650.838 104.875 648.459 104.611 646.297 104.09L645.828 106.035ZM653.438 106.875C656.771 106.875 659.588 106.406 661.84 105.415L661.035 103.585C659.12 104.427 656.604 104.875 653.438 104.875V106.875ZM661.834 105.418C664.106 104.438 665.848 103.046 666.977 101.212L665.273 100.163C664.402 101.579 663.019 102.729 661.041 103.582L661.834 105.418ZM666.967 101.227C668.118 99.4316 668.688 97.4089 668.688 95.1875H666.688C666.688 97.0494 666.215 98.6934 665.283 100.148L666.967 101.227ZM236.188 269L235.188 268.991L235.179 270H236.188V269ZM236.312 254.375V253.375H235.321L235.313 254.366L236.312 254.375ZM268.438 251.062L268.985 251.899L268.992 251.895L268.438 251.062ZM276.062 241.25L275.136 240.872L275.133 240.88L276.062 241.25ZM277.188 208.938L276.222 209.199L276.225 209.209L277.188 208.938ZM265.812 194.562L265.404 195.475L265.415 195.48L265.812 194.562ZM235.812 192.688H234.812V193.688H235.812V192.688ZM235.812 178V177H234.812V178H235.812ZM272.875 181.125L272.493 182.049L272.502 182.053L272.875 181.125ZM286.062 189.938L286.781 189.242L286.062 189.938ZM294.625 203.688L293.689 204.039L293.692 204.047L294.625 203.688ZM294.625 243.375L293.691 243.017L293.689 243.024L294.625 243.375ZM286.062 257.125L285.344 256.43L285.344 256.43L286.062 257.125ZM272.875 265.938L273.248 266.865L273.252 266.864L272.875 265.938ZM246.812 178H247.812V177H246.812V178ZM246.812 269V270H247.812V269H246.812ZM228.062 269H227.062V270H228.062V269ZM228.062 178V177H227.062V178H228.062ZM256 268H236.188V270H256V268ZM237.187 269.009L237.312 254.384L235.313 254.366L235.188 268.991L237.187 269.009ZM236.312 255.375H256V253.375H236.312V255.375ZM256 255.375C261.068 255.375 265.415 254.235 268.985 251.899L267.89 250.226C264.71 252.306 260.765 253.375 256 253.375V255.375ZM268.992 251.895C272.559 249.517 275.219 246.073 276.992 241.62L275.133 240.88C273.489 245.01 271.066 248.108 267.883 250.23L268.992 251.895ZM276.988 241.628C278.8 237.185 279.688 231.862 279.688 225.688H277.688C277.688 231.68 276.825 236.732 275.137 240.872L276.988 241.628ZM279.688 225.688V221.25H277.688V225.688H279.688ZM279.688 221.25C279.688 216.515 279.18 212.316 278.15 208.666L276.225 209.209C277.195 212.643 277.688 216.652 277.688 221.25H279.688ZM278.153 208.676C277.166 205.028 275.674 201.92 273.658 199.379L272.092 200.621C273.909 202.913 275.293 205.764 276.222 209.199L278.153 208.676ZM273.658 199.379C271.641 196.835 269.155 194.92 266.21 193.645L265.415 195.48C268.054 196.622 270.276 198.332 272.092 200.621L273.658 199.379ZM266.221 193.65C263.279 192.333 259.928 191.688 256.188 191.688V193.688C259.697 193.688 262.762 194.292 265.404 195.475L266.221 193.65ZM256.188 191.688H235.812V193.688H256.188V191.688ZM236.812 192.688V178H234.812V192.688H236.812ZM235.812 179H256.188V177H235.812V179ZM256.188 179C262.155 179 267.586 180.021 272.493 182.049L273.257 180.201C268.081 178.062 262.387 177 256.188 177V179ZM272.502 182.053C277.459 184.044 281.736 186.903 285.344 190.633L286.781 189.242C282.973 185.305 278.458 182.29 273.248 180.197L272.502 182.053ZM285.344 190.633C288.95 194.361 291.734 198.825 293.689 204.039L295.561 203.336C293.516 197.883 290.591 193.181 286.781 189.242L285.344 190.633ZM293.692 204.047C295.683 209.209 296.688 214.98 296.688 221.375H298.688C298.688 214.77 297.65 208.75 295.558 203.328L293.692 204.047ZM296.688 221.375V225.688H298.688V221.375H296.688ZM296.688 225.688C296.688 232.039 295.684 237.812 293.691 243.017L295.559 243.733C297.65 238.271 298.688 232.252 298.688 225.688H296.688ZM293.689 243.024C291.734 248.238 288.95 252.702 285.344 256.43L286.781 257.82C290.591 253.882 293.516 249.179 295.561 243.726L293.689 243.024ZM285.344 256.43C281.778 260.117 277.501 262.978 272.498 265.011L273.252 266.864C278.499 264.731 283.013 261.717 286.781 257.82L285.344 256.43ZM272.502 265.01C267.551 266.998 262.055 268 256 268V270C262.278 270 268.032 268.96 273.248 266.865L272.502 265.01ZM245.812 178V269H247.812V178H245.812ZM246.812 268H228.062V270H246.812V268ZM229.062 269V178H227.062V269H229.062ZM228.062 179H246.812V177H228.062V179ZM331.25 178H332.25V177H331.25V178ZM331.25 269V270H332.25V269H331.25ZM312.562 269H311.562V270H312.562V269ZM312.562 178V177H311.562V178H312.562ZM330.25 178V269H332.25V178H330.25ZM331.25 268H312.562V270H331.25V268ZM313.562 269V178H311.562V269H313.562ZM312.562 179H331.25V177H312.562V179ZM386.938 193.562L387.888 193.874L387.919 193.778L387.931 193.678L386.938 193.562ZM362.188 269V270H362.912L363.138 269.312L362.188 269ZM342.25 269L341.313 268.652L340.812 270H342.25V269ZM376.062 178V177H375.367L375.125 177.652L376.062 178ZM388.75 178L389.743 178.116L389.873 177H388.75V178ZM407.5 269L406.55 269.312L406.776 270H407.5V269ZM382.688 193.562L381.696 193.69L381.708 193.784L381.738 193.875L382.688 193.562ZM380.688 178V177H379.551L379.696 178.127L380.688 178ZM393.5 178L394.437 177.65L394.194 177H393.5V178ZM427.5 269V270H428.941L428.437 268.65L427.5 269ZM406.375 235.125H407.375V234.125H406.375V235.125ZM406.375 249.812V250.812H407.375V249.812H406.375ZM358.312 249.812H357.312V250.812H358.312V249.812ZM358.312 235.125V234.125H357.312V235.125H358.312ZM385.987 193.251L361.237 268.688L363.138 269.312L387.888 193.874L385.987 193.251ZM362.188 268H342.25V270H362.188V268ZM343.187 269.348L377 178.348L375.125 177.652L341.313 268.652L343.187 269.348ZM376.062 179H388.75V177H376.062V179ZM387.757 177.884L385.944 193.447L387.931 193.678L389.743 178.116L387.757 177.884ZM408.45 268.688L383.637 193.25L381.738 193.875L406.55 269.312L408.45 268.688ZM383.679 193.435L381.679 177.873L379.696 178.127L381.696 193.69L383.679 193.435ZM380.688 179H393.5V177H380.688V179ZM392.563 178.35L426.563 269.35L428.437 268.65L394.437 177.65L392.563 178.35ZM427.5 268H407.5V270H427.5V268ZM405.375 235.125V249.812H407.375V235.125H405.375ZM406.375 248.812H358.312V250.812H406.375V248.812ZM359.312 249.812V235.125H357.312V249.812H359.312ZM358.312 236.125H406.375V234.125H358.312V236.125ZM435.938 178V177H434.938V178H435.938ZM487.812 181.125L487.428 182.048L487.431 182.049L487.812 181.125ZM501 218L500.097 217.57L500.095 217.575L501 218ZM494.062 226.688L494.675 227.478L494.676 227.477L494.062 226.688ZM483.625 232.188L483.3 231.242L483.227 231.267L483.159 231.303L483.625 232.188ZM477.688 235.312V236.312H477.935L478.153 236.197L477.688 235.312ZM448.188 235.312L447.188 235.321L447.196 236.312H448.188V235.312ZM448.062 220.688V219.688H447.054L447.063 220.696L448.062 220.688ZM483.062 214.062L482.183 213.587L482.179 213.594L482.175 213.601L483.062 214.062ZM454.688 192.688V191.688H453.688V192.688H454.688ZM454.688 269V270H455.688V269H454.688ZM435.938 269H434.938V270H435.938V269ZM486.812 269L485.922 269.455L486.201 270H486.812V269ZM466.062 228.438L466.056 227.438L464.433 227.448L465.172 228.893L466.062 228.438ZM485.875 228.312L486.759 227.846L486.476 227.309L485.869 227.313L485.875 228.312ZM506.875 268.125H507.875V267.877L507.759 267.658L506.875 268.125ZM506.875 269V270H507.875V269H506.875ZM435.938 179H469.875V177H435.938V179ZM469.875 179C476.737 179 482.579 180.028 487.428 182.048L488.197 180.202C483.046 178.056 476.929 177 469.875 177V179ZM487.431 182.049C492.31 184.065 496.018 187.029 498.604 190.928L500.271 189.822C497.44 185.554 493.398 182.351 488.194 180.201L487.431 182.049ZM498.604 190.928C501.182 194.815 502.5 199.633 502.5 205.438H504.5C504.5 199.325 503.109 194.102 500.271 189.822L498.604 190.928ZM502.5 205.438C502.5 210.201 501.686 214.234 500.097 217.57L501.903 218.43C503.648 214.766 504.5 210.424 504.5 205.438H502.5ZM500.095 217.575C498.537 220.891 496.323 223.662 493.449 225.898L494.676 227.477C497.802 225.046 500.213 222.025 501.905 218.425L500.095 217.575ZM493.45 225.897C490.589 228.113 487.21 229.898 483.3 231.242L483.95 233.133C488.04 231.727 491.619 229.845 494.675 227.478L493.45 225.897ZM483.159 231.303L477.222 234.428L478.153 236.197L484.091 233.072L483.159 231.303ZM477.688 234.312H448.188V236.312H477.688V234.312ZM449.187 235.304L449.062 220.679L447.063 220.696L447.188 235.321L449.187 235.304ZM448.062 221.688H470V219.688H448.062V221.688ZM470 221.688C473.404 221.688 476.308 221.085 478.662 219.818L477.713 218.057C475.733 219.123 473.18 219.688 470 219.688V221.688ZM478.662 219.818C480.996 218.561 482.769 216.794 483.95 214.524L482.175 213.601C481.189 215.498 479.712 216.981 477.713 218.057L478.662 219.818ZM483.942 214.538C485.158 212.286 485.75 209.701 485.75 206.812H483.75C483.75 209.424 483.217 211.672 482.183 213.587L483.942 214.538ZM485.75 206.812C485.75 203.773 485.185 201.089 484.016 198.796L482.234 199.704C483.231 201.661 483.75 204.019 483.75 206.812H485.75ZM484.016 198.796C482.833 196.475 481.03 194.701 478.641 193.484L477.734 195.266C479.762 196.299 481.251 197.775 482.234 199.704L484.016 198.796ZM478.641 193.484C476.253 192.267 473.314 191.688 469.875 191.688V193.688C473.103 193.688 475.706 194.233 477.734 195.266L478.641 193.484ZM469.875 191.688H454.688V193.688H469.875V191.688ZM453.688 192.688V269H455.688V192.688H453.688ZM454.688 268H435.938V270H454.688V268ZM436.938 269V178H434.938V269H436.938ZM487.703 268.545L466.953 227.982L465.172 228.893L485.922 269.455L487.703 268.545ZM466.069 229.437L485.881 229.312L485.869 227.313L466.056 227.438L466.069 229.437ZM484.991 228.779L505.991 268.592L507.759 267.658L486.759 227.846L484.991 228.779ZM505.875 268.125V269H507.875V268.125H505.875ZM506.875 268H486.812V270H506.875V268ZM527.438 178L528.347 177.584L528.079 177H527.438V178ZM546.438 219.5L545.528 219.916L546.438 221.902L547.347 219.916L546.438 219.5ZM565.438 178V177H564.796L564.528 177.584L565.438 178ZM585.875 178L586.763 178.459L587.518 177H585.875V178ZM555.938 235.875L555.049 235.416L554.938 235.632V235.875H555.938ZM555.938 269V270H556.938V269H555.938ZM536.938 269H535.938V270H536.938V269ZM536.938 235.875H537.938V235.631L537.825 235.415L536.938 235.875ZM506.938 178V177H505.293L506.05 178.46L506.938 178ZM526.528 178.416L545.528 219.916L547.347 219.084L528.347 177.584L526.528 178.416ZM547.347 219.916L566.347 178.416L564.528 177.584L545.528 219.084L547.347 219.916ZM565.438 179H585.875V177H565.438V179ZM584.987 177.541L555.049 235.416L556.826 236.334L586.763 178.459L584.987 177.541ZM554.938 235.875V269H556.938V235.875H554.938ZM555.938 268H536.938V270H555.938V268ZM537.938 269V235.875H535.938V269H537.938ZM537.825 235.415L507.825 177.54L506.05 178.46L536.05 236.335L537.825 235.415ZM506.938 179H527.438V177H506.938V179Z" fill="white" mask="url(#path-3-outside-2_4_181)"/>
</g>
<defs>
<filter id="filter0_d_4_181" x="118.896" y="29.3086" width="582.971" height="253.691" filterUnits="userSpaceOnUse" color-interpolation-filters="sRGB">
<feFlood flood-opacity="0" result="BackgroundImageFix"/>
<feColorMatrix in="SourceAlpha" type="matrix" values="0 0 0 0 0 0 0 0 0 0 0 0 0 0 0 0 0 0 127 0" result="hardAlpha"/>
<feOffset dy="4"/>
<feGaussianBlur stdDeviation="2"/>
<feComposite in2="hardAlpha" operator="out"/>
<feColorMatrix type="matrix" values="0 0 0 0 0 0 0 0 0 0 0 0 0 0 0 0 0 0 0.25 0"/>
<feBlend mode="normal" in2="BackgroundImageFix" result="effect1_dropShadow_4_181"/>
<feBlend mode="normal" in="SourceGraphic" in2="effect1_dropShadow_4_181" result="shape"/>
</filter>
<filter id="filter1_d_4_181" x="116.312" y="26.75" width="574.125" height="250.25" filterUnits="userSpaceOnUse" color-interpolation-filters="sRGB">
<feFlood flood-opacity="0" result="BackgroundImageFix"/>
<feColorMatrix in="SourceAlpha" type="matrix" values="0 0 0 0 0 0 0 0 0 0 0 0 0 0 0 0 0 0 127 0" result="hardAlpha"/>
<feOffset dy="4"/>
<feGaussianBlur stdDeviation="2"/>
<feComposite in2="hardAlpha" operator="out"/>
<feColorMatrix type="matrix" values="0 0 0 0 0 0 0 0 0 0 0 0 0 0 0 0 0 0 0.25 0"/>
<feBlend mode="normal" in2="BackgroundImageFix" result="effect1_dropShadow_4_181"/>
<feBlend mode="normal" in="SourceGraphic" in2="effect1_dropShadow_4_181" result="shape"/>
</filter>
</defs>
</svg>
